<mxfile host="65bd71144e">
    <diagram id="zd4gk1HilymZzLxFTOrQ" name="Вариант1">
        <mxGraphModel dx="1154" dy="606" grid="1" gridSize="10" guides="1" tooltips="1" connect="1" arrows="1" fold="1" page="1" pageScale="1" pageWidth="827" pageHeight="1169" math="0" shadow="0">
            <root>
                <mxCell id="0"/>
                <mxCell id="1" parent="0"/>
                <mxCell id="zmzLIvNXmuu8GyDBqJHV-4" value="" style="edgeStyle=orthogonalEdgeStyle;rounded=0;orthogonalLoop=1;jettySize=auto;html=1;" parent="1" source="zmzLIvNXmuu8GyDBqJHV-2" target="zmzLIvNXmuu8GyDBqJHV-3" edge="1">
                    <mxGeometry relative="1" as="geometry"/>
                </mxCell>
                <mxCell id="zmzLIvNXmuu8GyDBqJHV-2" value="Start" style="rounded=1;whiteSpace=wrap;html=1;" parent="1" vertex="1">
                    <mxGeometry x="115" y="240" width="120" height="60" as="geometry"/>
                </mxCell>
                <mxCell id="ozQVp1FqlLE9wQ_dV6gl-3" value="" style="edgeStyle=orthogonalEdgeStyle;rounded=0;orthogonalLoop=1;jettySize=auto;html=1;" parent="1" source="zmzLIvNXmuu8GyDBqJHV-3" target="ozQVp1FqlLE9wQ_dV6gl-1" edge="1">
                    <mxGeometry relative="1" as="geometry"/>
                </mxCell>
                <mxCell id="zmzLIvNXmuu8GyDBqJHV-3" value="array[] ={....}" style="shape=parallelogram;perimeter=parallelogramPerimeter;whiteSpace=wrap;html=1;fixedSize=1;rounded=1;" parent="1" vertex="1">
                    <mxGeometry x="115" y="330" width="120" height="60" as="geometry"/>
                </mxCell>
                <mxCell id="ozQVp1FqlLE9wQ_dV6gl-14" value="" style="edgeStyle=orthogonalEdgeStyle;rounded=0;orthogonalLoop=1;jettySize=auto;html=1;" parent="1" source="zmzLIvNXmuu8GyDBqJHV-5" target="ozQVp1FqlLE9wQ_dV6gl-11" edge="1">
                    <mxGeometry relative="1" as="geometry"/>
                </mxCell>
                <mxCell id="zmzLIvNXmuu8GyDBqJHV-5" value="sum=sum+1" style="whiteSpace=wrap;html=1;rounded=1;" parent="1" vertex="1">
                    <mxGeometry x="115" y="720" width="120" height="60" as="geometry"/>
                </mxCell>
                <mxCell id="zmzLIvNXmuu8GyDBqJHV-45" value="" style="edgeStyle=orthogonalEdgeStyle;rounded=0;orthogonalLoop=1;jettySize=auto;html=1;" parent="1" source="zmzLIvNXmuu8GyDBqJHV-42" target="zmzLIvNXmuu8GyDBqJHV-44" edge="1">
                    <mxGeometry relative="1" as="geometry"/>
                </mxCell>
                <mxCell id="zmzLIvNXmuu8GyDBqJHV-42" value="array1" style="shape=document;whiteSpace=wrap;html=1;boundedLbl=1;rounded=1;" parent="1" vertex="1">
                    <mxGeometry x="520" y="920" width="120" height="80" as="geometry"/>
                </mxCell>
                <mxCell id="zmzLIvNXmuu8GyDBqJHV-44" value="Stop" style="whiteSpace=wrap;html=1;rounded=1;" parent="1" vertex="1">
                    <mxGeometry x="520" y="1050" width="120" height="60" as="geometry"/>
                </mxCell>
                <mxCell id="N3c-9bxrRF45g7tzg3aO-1" value="" style="shape=image;verticalLabelPosition=bottom;labelBackgroundColor=default;verticalAlign=top;aspect=fixed;imageAspect=0;image=data:image/png,iVBORw0KGgoAAAANSUhEUgAAAoAAAAC7CAIAAAB6jbgzAAAAAXNSR0IArs4c6QAAAARnQU1BAACxjwv8YQUAAAAJcEhZcwAADsMAAA7DAcdvqGQAAJgpSURBVHhe7d0HvNbj+wfwn5WMjGSGCslMyyoyIjMhSrKK7J2RIgrJSmYUKatComWk0kJIJUmDiNAgiqjw+r97rsfjcTr1K/x/x7g/L6/z+j7f7/2972t/ruuc0/GfnxMSEhISEhL+50gEnJCQkJCQUARIBJyQkJCQkFAESASckJDwl8NPP/00f/78RYsWZT8nJPwTkSXgb7/9tlu3bh06dLj4kkvOOffcm2666Z133olH/3uMGDGCADdncPfdd48fP75Lly65j9OnT8+uS0hI+Cdi4sSJrVu3aXbZZTNmzMjeSkj4JyJLwF9++eVhhx1Wt25dBLzNNtusttpq+++/vzSIp/9jjBs3rn379hUrVtx2220x7gcffNCzZ8/ddtutXLlyWoQvvvgiuy4hIeGfiOHDh1evXn2PPfaYOnVq9lZCwj8RvxJw48aNxf1XX311wYUXIuDVV1/98ccf9+j777+fPHny+++//9133/n4ww8/WJyPefPmuT9nzpx3331Xx/pTBm5mH/+CuXPnLl68+Mcff/zss89QrNSy1ZKzf/75m2++yV0H5s+ff/TRRx9wwAHRAi9cuPDYY4/dd999Y/z1cXYGNswsXzl8/fXXWJxe8XHBggUzZ870NT7+cdiK/PYnYb5e1GSl5cjsLe9aky8MsxOvgH1yYOrs1W+xrPvLB+/kxONBnvr222/jY6EIRxA7Pjo0p0LOvGATKlic/bzyiHAiXvbzyiDfFIzJ9YUak3iEjCBfERCGmsvaLRA2zNkHvEURkbCyDrI+98qiRYuY3SbxMVDARPxIvOW7r1AsJ97+q/BsSFmH5kviwiuzZs0qNADIWWA3d7x+ZfPmu++++9tvv52vgq0UKJUkXvE1F2+5mwWwLFEDLGkHKn/++efLt1XYc1mnLAf561m1QIxJkwKWiTvLCarfgbAb+Zf+lj7xKLUcvSgeRmYiMZa9m5GTLvlpnoPjvJX98P+PyNz/6r5QMPRljWXpCx7hiPwYtjl4Ud79uT8WyRIw+w4dOpRYU6ZMqVev3qqrrrrFFlsMHjz4nXfeOfOss4444oi99977oosvxn8TJkw459xzjznmmJNOOsnQfPjhh993332PPfbYCSeccMghhxx44IFom4huHnrooV685NJLGzRoYGXLllcj8ttuu+3444+vXbv2Xnvt1bp1G0qi7RNPPLFz584hSUCMOqJWrVrql4/MR6r99tvvk08+Qd7nX3CBdsG21157HXluvPFG1yeffLKbDRs2PPXUU+3sONenn376Aw880LRpU+IRifk6duxoJRksfv311wcNGkTBRo0a+ThmzJi77rrLtRctcAHaEZo2adLkySefDNlyePXVV8844wxHO/GUU06pX7++j23aXG9/53qLQS6+5JJp06ZR5+GHHw6Zr7qqBSN36dLFR69YDOedf/4117SKHbzV9MwzuUNw9+nTxx1inHX22e+9995DDz1ENvpGTVf91Sn7XH/9DZY58bXXXnP/gw8+YCIqgPW88+GHH5Lk7HPO0UhlZM/CEczCOF7nuCuuvNKLEydOfOSRR2zrXK556qmnnn/+efvYn/zuEIYXunfvTnEfvf7EE08IFe5wzdpUECTso4706tWL9WxFR4qL7AcffNDmYWSGCpmBylba8M4777z11lud5eNNN90k8MKDFOfBWEzICy+6iMWs4VNucn311dfwu20ZShbJnwEDBhDS66NGjXrppZdciCuSiO3rrmvtCALwLOHt5gg6Pvvss2IyNqRpixYtSctHHOR1r9x9993syeYOEv/nnnceb3pkvTCwQ/v27Xn80UcfDRvS1BHKhG7SoT46iLUlHf8611vunHbaaT6GdohHDFg5bNiwuMML9ve6O3LKKT727NmTmkqDs6hJHuEnKiTa5VdcEc4S0i+++CJFrL/lllvuuOMO97mbr20SKvtIQs567rnnGITMS4cK4aUVkbwuonr06OHa/j7GPgzlFFqAfL/33nsJpmKwGwUttqcUk3Fc5hWJ2alTJy/yS/aMTOLfc889xx13XKVKlUqVKnXkkUcy7CuvvEI2pSCSi5pcwKHizbYWiDcrSTVixAi6WOOp3cQb7ziORwQGC/goWviFSEzkI2mprNR465lnnpFQNLIzyUlITk554YUXVAnnCh6mJjbFHQ1sJRIiH0Gm2Fzwc4GPxLADV4pDjnPfi+6MHDmS4+jFYizgvmvJ6L5rAjju5ZdfFvBklpKS1B33L7v88qhsQGByKi9xNIwdO9Yyr0gfKlvPODfffLOVpDLDXNqsmdDNrv75ZwVfPHjqFWb56KOPbrjhBuLF/iBIZB8TUeGggw4i6pAhQ7wYulhgW2lLTWZnH8cpBU5RbQr9WeGkSZMEPCNEwaS+eKCmO05hTDJTUCLHU1JxHwnd9NERPpKZPFYqFDwuncMdLJY95uefBRXZvMhZ4KmURx8sE5nCLOo/23rXVpGnkoU9fbWGADyrFOAmj6h21FFHiTSyvfXWW6LaW16ne0Sm9YzfqtW14tx127Zt1S4CqCdZmQrDb34JS8AZOtdee+3ixYuLTsnA+mussQZrIuA111xTwqsa999/P2Z1wPrrr7/BBhvwWYUKFSpXrqwuYG659+mnn8pnm2y22WYS9eCDDzZPU7h3795eqVOnjoO23XbbDTfcUGmgIb+yUVaIDIKAt9pqK0aUJJxtfRCwDEHeUkLw2U3OMFCJEiWI2r9//5o1a+6///5Kf9++fbfffnuGU8u0BWXLlvUKFqQILVTMHXfckUfZnTyCZuutt7azVBS4Rm2KiHWxaI1O3JqPP/44K9wvQAYWbLfddoRnBKZQtdmNVDYXZ3Xr1l1rrbWULSSkoCCerl27brPNNuxJQi3FuuuuSwu1mNkrVqzISloTAbHeeuvtuuuuqqGyQkIG32ijjRQmcW9nvdHAgQMJgAIpzrzoUPiSWcJgHVHLWeuss45NHIFNNb+2UiILjE06G2YpV66cfBDi1atXZ0bxRxibENK2LE99scURdBRhRx99tKC3ucUKh2RgPRZgZyrgJPHn9GrVqile8pZVVUxmwYsq0cYbb2xbaq6yyirOzXGqNpZNbGtPpxQrVkyIE16wMQXVBAwXx2KKYCNrPB0/frwTyWZ/dV/g8bJCI7SI9J///EfSKm377LMPb6oOzCtziMRKMmT48OEi0FmKC6kEszIqwZjOYpwhpFkminvp0qWFltQShB06dPA6vajjEb8wnVpJX45mQ8KwoRhmYS4jMHkYnAEJwxSULVmyJL/Yn6FyMaYxlcarrbaaiMI9PoolmSgG5JGQ43oNroogI9QjphaE9mEE4SRfpE+kA/Gkm2D2qFu3bq7FDLNLvSpVqoi3p59+mn933nlnlZQxI95IRfgQBgSVMA7h7Ux4JazZZZcxGtcroPavWrWqjJPy4oH9XfC+oJK2NIU99tiD4uzpODklwKgsgyKYA+qmrGf8yCzSsvNuu+0m8lVD5xLbU5tzpUxnk+jyyW89x/EIu2lzycxcIoTpNK+24vfmza/i5V122UWO33777TvttJNojJ5jk002EX58anOhrnugF9czI++Q2aMaNWrIX8JLW/YnmCjifbwS8it9arRDHY1iiSHIuUP7EhymXjldBdBBUkdUc9zmm2/OEeKKhT0SPGXKlGFejwShio88Qtl27dpZVr58eZZ0n0/VqzgaEKrX+U4vIg7loMj3Cr0EuRBV2+VIdvXPP3MBjTAEC7Ce+GE9rKaYk4fBxQ9pbYiQrBH8yohE4FO5jzsts4PkYgSJhqVo5A7hCyVgMzSrKlkyyLbyS78o3mxIZp4is8AjpGT3lNgqp3ASAGKMBbQRWkPe5ybGJIbjMAunOD17zM8/I0WFyIt0jO4KTfgqnBQTSSRbCc+t1BQDjKNiM7KvttLvcveWW27Jd4JBSZFiUpI1SIjFZbrqQRelFScqU0q0bI3fWJIUDhU86kx+h7Q0fkPAsovOCpAySgg64wxpQ0phR/mYU9GYeJW3jiS6jzQXTMzKB4JVjkkq9vWUGu54l1nffPNNW1GbOz0SmnhamBrtC3wrIwh4hx12YCnuEUyKRRBwv379eNd96tkBm8ptZwWFq6Re1JBqfkmOJ6SZ1JIqyjEHKBxYx/7iWMekJFGZZenC1iT3rmouh7GyTUQAgTmGqJqdAnKiW4IJCIVj0003JaeCK3nkhvyXlqoSeZzLOPHtSiVe2RXEfKM4EoMFtFRKFZvQZdasWU5kMfOKDR2hGCmaEkmLShI5yQKSTRQieNKSxOsig5qSQdthPY3EFm/KSUWHALQLsfOhEHhLpmkC2JYwrBGm9lQNJaSJRBgRhoQqoHnRHebVQlrD1+4zIw4W1s5SbuxABdwgn+WkSk08156qsOIHuE+FykiRBReQBIWwmyomu5ROJxKMTRTN/N9LEOhygHFcYDhVzOZWEkb2Kri33XYb4a1RsmUIB3EE7QShAipyPFLIFGW2Emb25GUm1c+KfJsQ2E1vqTtmd2+JSS7mU+ozrMi3m3aBx9GPbk+EjB49WoRTJAiVSAolGmYT3nSH3aSPxVLDIwJIn/BjDnKbxRzndQ2cWkAwFUfk8L5a6ThJrlJwsVqDpPmI2PRyJwhAiVSATGN4gn14kLT2ceLnn3/udeHEUL4SgFstiL4z4i0rSmb8JbxHrmWBQxUHNU7U4TD04NpXKSm/BLncIbyizI/iPDZhJduKKKzgLQHpdULG04CY5yZiMzULS0CWVI7CRKqkNZFWIsrrzEISm6gzAkbhFmyOlpWvvfYakzox6rIoEhjqPuvJIL2Lzk/FBwWUcwUkEtKFONHRvCNVmREdqvUCnrvdwa/OUnYRqpTBuOZOxs+IvwTWsDA7EwABuHao+/ziaL2CHBEMgta2SpBWUtShEBVSHeNu3M/REjkqG5s4WjQqSlKDN5EBjzOsypZPqCDj2EQwW4A2RD5/iR+Eseeee2rfxU+sVAMpJbZZT2189NFHBbYSQSOBwdQqDNXYUOqxFStJTzbUvbGwALYJmSURCuALxZ9B9BCKYQG35sNBclC0sEPklxqoZAkhGkkHFpDInipfhiIepAuO4AtnCRuWVOc5S9nEpqxqGc4TEnFEgJz4kvBiiTz8yBfWqMx6fXKqe8QQPyoSmlDxOIIKOH7hwoVOdK6PLKx1IyrioLWBRIQwqXjDuNqXqVOnxiYKjnO9S3IxxoyFdiH5+A0Bg+QhivMUR4pxia5NOOq51FO5akH0p9g6CJi9vKIcaPn5gJvZhTXNTAqBPpFpgoDlvJIqCBhFlFjMlNmDf4sgYArYx8f8b0EbqRlF9OvI/isBq19cq8iytWDySCWNKVA8qYNMxhM0Jb8oX3L2zz/nCNh10CH1FRfEqZzlx9bSBCzrkEGkHE84UYfOkbkfYAsy3Yz1OQLO7PSzrA72cq1ysRgvgtO5WfW0JwKmDjuQRBALJg1djoDdl5AKhOSnO+8odoqmSKW1XqTQn14EAdsf+Fd02pATP/jgA0+ZqGzZsmGZHAG7Vq0Ed0ir6TN/cDfOoJqEd1MZki2KuGhhOqlbqlQpQYyf5INMUFAEwNIEzHpyzP4iWLRIA/dVK7UMcFushCBg2qkjAlJ7HgQsbJhCkIgZ8UAkMihJQo5B1EpmVIYkm9ej+WBtFcqeEpKO8nk5BByNPxYRG3bDsnbDLkHA1osQrtHCCkIf33jjDTLwi16egizspmbUi9oCTneQuhN+zIExaUGp+FEOIRlNXRY5thI8WJOmwl6FMgRQyluqs3rN9W3btvWRJJKR0RCwIxRuWUOFHAELbBHFlQJGrynkqGZz3JBPwCKc8EIuX3gXOQJ2rV6Lc7ZybSuS20pVEhiRMqILJTA703kq3vCQtzzKQR+jf5VEQcBKm0yXjMJJMVH4bCV/uUNS60KiCntRZbQ5ayDgXCKwG5XzCdhsh1qYDu8iUZuIkMzJP7NJHM3IctkRdqC4wqWCiR8kxN0YOrrAIGCtSbyeg9CV7M7yuqaBBWSu1BNRzhVaZKC4eFO1BKRXbCtuGZMrNTfu0JFeioM1Koyz6C5KcwTM7CozG5qAwykBBCycmC6GWpHvJmc5lwfVXnU7VrK8xJQ7KqGPyiPKJ2cERvQ6wD6spCC7Vi2FlrckTpRuX/EQzwYBC2Yi4eP8IlkArCHM8gmYEfjXuQUImKGEivrMjzkCFgasxybh+vj2oTJC5aUJWJjZRwBIXpYhKn2VZeJJN2oainIE7JUPP/xQ8dGcxc8UVBUtsgAgFfe5I6O9xcVBwLLSAu42EAqSIGAwzXuF/Pn1qlBkCVjvzDE8ofliHXGA28w0vKj95AMtJ/e3bt1GaqmD0iNmXFXVtXSlA5X4QDLzCoVFlXo0YcIEaeld5jNurr322oq7aqWPsFgUSoP+/fsbdEKSAP15nWW1Yz4yWfwSltBHaQgGMWMsQso3XhRzgsBKPvDivHnzhKkKGLOmNS50eUhIapGEVNbLMXF87nnn8QG/8g178Y0uPppNG+qVuEQceF0Eq+lakCUiZoDe3CSV9JbzXCWBpTEFPZWcVMBe/otORXxLJA7mSMJodCIDgTqMaR+x7hQmlTPITwpZ4yNfaPfEBFb2kfuvu641a5CWzIqR/3wUo+6TmXcYlr9Uf2kTP4pQ0eiV/3Mgltc5oXxS8fK4ceOYy7vKkKeiQkZF8NGOhJHApBIk4l5ivPLKK4KPK3GGcFehokS6aSuiIgMhQQb043WulC2sLQBUvSVC/AIlniulijKEgC+86CLycKVHYppqrBQrQWfqDsKmplccLavVLOFKEo+QgXPxouoQP/5gfPFgE4IFAWuhUBpRZTXLM7UIwYudO3cmSRzH5kpAELDddBhyW/7rqU0Mws8mPJ4jA+A7r8eUwKdkw4viVqfCESjcDlwjfsig+uCM8GO8Drwc3/zgaPxqKEcw0l418VFm8bVMlPninC+sx4sqdTSF6oIqRmsRiH15x+sKnJZaLlBfBilt6qzyrbUihrOELh2FGSN4pCiHMIo14SUL4RmZ8KGpkEPn8T3kIGB0bsMwI5VzszXVOIX69mRqVSySghPztcZz4uT5558nBr0EJ28qGmhG3XdHMChWLEBN5UhTFSOdfUQaV7rP3YKZvhKB+sElAk9U6wlkKyFjAlYrxKH+XmIyHcqU70JaKVP3bEUXNhc5TG10E9us5BQbcgTtokDlgzc5SyqRR5oILfFPbJIo3BxHC+HEdLzGFLyGk/grYsbrOjb68hEzOprihn57qqKyIL4BoDirIfpvfomJIuBFirMts3ANU7ChTpEiMcrr5mMllZU1dVsji3rpJU7cjMBQbWIZ+3Mrm3ATg7DDrbfeil3szG7SBMmZ46kjnZlav6jCK7D2MSwpm7FPwD5yMFJAYZG24kGc0JqQSmLMJGJM/BDD67KYAKKLeKJUP2cf1sAgllFfItARO3Aui0W5AC9y6CWXXqoyox5+dCGGFfloPs46+2z68ikVKOUVFYBN7Mx6qFB4cJAsJpXqxwLEVi0FnpsSkzvURlKJIqEYmxDGR8ODWsGq9MqIUziyBKzRYwJVWGop+jwtIAghyFyLIXu5QOnCyIUAcobEWGeddbAFBQhBNwWab8SZDWNnm6BkT8W3KkATEIJYwT7UQ0v2z5+EFDjlzG7KgaSVMJSUumJFQDOK4wggCdVo5nBNDDljGQnVF52IlZbRQhDIE5HndJlDGGmPNRUp4yzXqpvYgvkcZ+o1T3sqiNlOee3evbspwenU1D8Kgly9kEvqpjAipGwhDGqRpfahoAFCrDjaEEkjqcJ00sYrSr8S7w4DKsHxQ1C1npWUBuM4sR2Ey4UyO4gVoaNF0F6Qn2rCjvoSm7KktTj6RNEmENViMttcwkgDWWG9fsgp6jXV3M9osOQbHt5lHFJFsWBetUzR1NwFwQuMTz75RCa4Zmd+FOKmXicymggRCYyjLOZoD3HagTt4n3iElBvMHl0t+0hXLYIAYJ/cN8bVHeltT6ZgKANf1FkpoTYZWXBt0D8Y0AlmjQ15jYK6GW+pL0KCmkznXQGmoBNV5rhmEzpyvWJESKagOJKWzyJc/tNRFqhHTE1ZLlPLuECQaNSIp4iLLh6Upa6FBAH0rNHxKCUxK4gNjgA2FBXcOn36dLEhJikonHQeIoQpMIGL8GPup6GsrZDZk+K2VQ2VLdKSWVCpTR6RimqiRS0QS/KOCnzBMtp5j5iLKTQ9Qpr16G6+JLzXmZ27KSWc6EVONV0xjXhztHijms4m5IEQXg4SXgESOZiDfbiVYZk3CNihuJNSioAGlJ1lOvtLEF95VtshO8RnsCOto00JqBs8wmLiRzERSxZQQcsoE9lcm8JBwkkZ5TXxxjIKnztSyeZUEwy8Zh9+cbpuT0griBzKraJFANBCZRDt4oFZmJFz1dMQAyfRNNxhSHIE6zGp3ZgLi2jZ2cpHhBf5G1DNWZKP2EQ+8rJyx54ChuRKK9k4XQwgXRVG0WAK+c68skw2ucMvNvcKozmXJTXNuISycoG08ogKgoqPYryO05VK+1NT/RSKDBiWFz/eUkacyxSxGASG08UDqtac0dSoQ3d2ZrT45hwCVuKkkh3IqUPSo5BTOWI0qrmvUjlIOuurpLY4URBckITpYpoESeEUm/Mga9CUSHKcC+wv/KIkWqOO6U6EAacb96mp1nGWFLCGhNwtL8QhG/KUAs4X5GQrLbuzVB4v0kuQiAROUY7wvTtMhHoJLFqMfzoJpUPo+uhFTpcU9FINxKfeAkMRxnpbuSP1RLs6g4CJIXcc7Qib8LgjBL9YUvZd6KgEjNqYMUAh+PVb0PHNFp6jFStrYTCNr+QmBBN36tRJzlCAZLp+azTODA061ocffph99c4iyVaao9hWg+NFXhdPWjbFTgIIFBHM4lpjXnehMY/1oLm2uZtgNx2fFI2PeEuII057Grx8FEP2jKfC1H2Q9k50x5hrCPDVNTt+//33DhKaMlb3JHAVEVpTUOtk5jM6mxvsQGtvEc8jH11T0NFRXgOexs40EihxnGs1SL3DRk6xPzMCO8hVxEBxYrBYvEt4QWA3tUlIGQGVYweRzVvCiHhEpYVqKCW8RVSb8Ij7GXU7kc198CLyEEN2js1ltRyISQ7YVljk2ltllFmstAnLkMoFvUAkCTiP4jvnXGZ/H32N706LDR+pyVkRYa4VbqFJTWKIAeAmKrAqJypwWlEnqp724SPH4fIlomTy00d7coTiGGexv8UYRaFxnfv2gxP5CLySc7HNhYRrx1HH1wgkd1AaRSwO8+IG0RKPLEMe4lPjQiQzjXLvUTy1Q0gVAa//QNKff/65TajJxV5n1RBA/OcihF7MLpu8Ht+wDb9TRJDwizmAQXQztrIGuDvelUE2BI907o5QdOzvRWe5EG+qAPWJKk40MUykl4r237D+1FNPOUioYAt5F+IxFLjwMSwT59qWfTgrP96Imv/NnnzhI2IdGtvaSvEKAsYc1jBUhIS3dL2sJDYYRy2WEU70lsxVpFzn2o4ABXUJKqC6pv8Qw8FwhKEy97Eqad0Rn8gDszKyFFBJIiVB1IlAR4eOZBYbrmMSWqJzp07UUdOVaXuS2UfSZkRY8s0elT33r264T7RYZocYeaMe+ihQwxoB950eZYoMXGyNOwwrjJnFKRKZUvzCREqZcsQO8W3kCNFIH1pHZVMDyWwT19SMSPDRBdPlj7+8H8vyHc3gMo79wc389TweYSyQ4nvpyg6/eJEYMegjYC2m1AgPmgvdZASnuykOqc8dDpI7vrKA41zQXeVRbQTGksMy07m+R39GazHD5j5qVmylyFsfwvNROIuySkHYGTyNfOfNWEkeRcNu4lxrzlCRDs7SzceLDB5hpnpoLziCwUnCHVYaS8LIIbkXOcJ6EQgGJx+po4tC7SzAg/JapMnceEtgqMa5YgIuSGIOloMEpl2kf6Eo+DPg5UPoKEDxM4MAJ+lPsx8SMv82SZ8bP4FbKeS+iZr9/IehCiMV0WaWFVJxU87Xr18/fvTyp0NCaj5yZ/0joRFR8fOHnoSAWmagMbNmP/8xmAQMylqH7OfCgHeNUwgm+3kloVXSKBf4waFOQgHVScQPBRPYh5WCd1cKcsQ4Yf6O3gLQHrrNzev4Typh0/j4l4WxBwGLiuznPxUrR8CYPNqEHGbOnPnPLrgrBV2tINtggw2OP/54hsofl5cPhUbHXSLzq6e5hvEPwthUtWpVI8LFl1yS+y6QnhFNLqcj+90wtNF6w8wvLuV32f8wmIp4Nr8HTQBV1aCw66671qhRwwibvft7YXo45phjypQpo+otKx10QvXq1StZsqS5P38GXUGo/kaiKlWq7LXXXrkK5ua555238cYbH3TQQfGdzH85WIZ9TMBslb21wjAXXn31NfG9isCYMWNy3+MJ2F/dyH74SwLB0aJ48eJNmzaNb+r8uVg5Ak5YPj7//PMOHTq0bHm1/3pmfhMt++C/QU3nZm+Zg5f+vcrfhy+++KJLly733Xdf/u+J6GQX///8kRqjQ6igIC7/9w4S/nn44YcfHn300Yj8Pr/8XuHvxtChQyOWtLPLSoeo79bcc889v6OhNJZ17949dojfNwwMHDjw5ptv/uM9xD8DvXr1ChP16NEje2uFodTk/wjjb4oPPvjgpptuYgF2eDvzbxz+XCQCTkhISEhIKAL8Ewh4/vz5H2b+7NGgQYOMfdm7RY3vv/9e9zR58uSFf+BvIP+PYTieM2eOOb5QrPhA/w/ATz/9tGDBAl9dc2Xu13MSEv6C+O677z755BPV5vXMv7mIuE346+PvTcA//vhj375969evv/fee1esWPH444+PX9ktcozI/Auu6tWrV6tWrX3mLwNnH/y1MXfu3DvvvPPoo48+5JBD6tWr1yCDunXrHnjggQ0bNuzdu3d23b8AY8aMadKkSc+ePb/55hs2ueWWW1JRS/gLQlgOHjz4pJNOqlmzZvyBjttvvz3F6t8Ff28Cfvvttw844ADccPkVV9x2223/H9+j/x0wKV508cUXXnTR/fffX7t27XLlyhX4zbW/LDQ0M2bMOPTQQ+NfSQ7NoE2b61dbbbVLmzX7V03AEydOrFWr1vbbb3/iiSfuscced+f9+++EhL8OJk2adNhhhx177LFqzjXXtOratetf57uACf8VWQL+7LPPnssg9ws7n3zyiY/9+/efNWuWp0899VS3bt3Gjx8f/34x88/Mer/88stx/fzzzw8YMMCFj/GrYj/88IMpMO7YJy7s5gL69ev3+eef2/mZZ555+OGHTRv51e2DDz7IHRGwedwJSoibr7/++nXXtTb+irlHH31UxYxNvvzySy0haZ988sn83z8CoWmfV155Jf5NqlfcnD9/PkWI8cILL8ybN2/cuHGxv5WDBg0iJ/X79OnjjmUQj958802EREen+5j/71JsQqP4RdkOHTrssssuub8oFGCc4cOHd+nS5fHHH586deqUKVMKaOc4KmcckvUIahw1apRHTBeLfSVw7t+9TZ48mUZPPPGEOz7i0ZA5B68TbODAgTR98cUXc78XvTSYdK+99op/7AtcX6xYMSOg64ULF7766qskJ57R0Md33nnnpZdeGjZsGBdQk08Fg+NI7sLT+A48W/noaIpTX9UIqSwLk4L+SYA98sgjtBBFH330UU5Ty2INlzG1j7Zi/PjOsHPjaSA/GjnCcZCLxtxxLNm3b9+4fuONN+xjcXwUqFbenPnfyJx51lmaDyKNHDnSPpbNnTuXGS2Lf3QLQo4vvPLxxx9zqMW0iH9J7+m3334rkMQJGWIHPrKme/fu1IxwtRulmDFzflYAF5zIvMyV+7cc9oxIeOutt2J/FtbhucPa3BouHjJkyHfffRfusH8uxqjvmu7Oiju+uhnXIWGIJ5ycG0cE5EJYjKiSiCPIn9uEBcRMrP/qq6+sJAbDxi/9EYwijCB+SBUGDHjXx3AZaXMJzoCZY7NwnJXyWobmrOGmV2L96NGjecRHcnJW3AyQTe6zT0SX0JIgIXmYXZZJ2HjL/ZxxmFrFi3/QqVjNnDlTiC7Z8RdYFit9tfLdd991bR/CsKp9mDEUyUWpwkX+XJ0p9Be+GM2yWBDID1cmiuyWTbfeemudOnWY+qGHHnJTOHmdF95//30pGTEWewbmzJnD2u6Hf92hFOHtwBRRbXLpGRBLVPM1l5u5khjgu3AfCF0bZo7KglPikVNy2cc+8shbEatL/7MCUUpCY8D06dMFZBg5BxLyMo+IKD5iLqlHJPEmzGjnFbrkv6XocfqiRYskiwpGzr/CRJElYHFj7lkr83fDOQ/atm279tprn5D5/0+dccYZ9erVq1Gjxt57783Np5xyypZbblm5cmVD5z777FOyZMlzzj33pJNOsv6oo45iDhvKt2uvvc4jb11w4YXbbrvtrrvuqkHz1bXpUAKfe955xxxzzL777msrkRqSgPA94ogjtttuO0zg64477nj11dfYx24tWrS84sorS5QoYZP42ygW+GoOtsCeclsn6PrUU0/dc8897cCRsS2fNW7ceL311ttmm23IbxNvyY17770X39DUVqIBN++www5rrrnmfvvtV716dQOQKDn88MPXXXfds885p2XLq7fYYouqVasKjk6dOjmiQYMGFSpUYLc4JQf8pJxpThknym5AuezYseMhmf/noH3s7FAXtr3++hsuvuSSddZZR0a1bt3m4IMPZtJgPnJWqVKFYFdm/j+pm2++ORPtv//+VGBwIVW3bl2i1qxZkx8RCYfymgHOMh1A6dKl78yApgSmqUIW8iyNZRGwqJCBNrSAymjp9ttvt9LmJmb2rFatmoRp1KiRQGK9gw46iKiqgEzjOC8ycqVKle6//34FcbfddrOMHVQQEpYvX57jBBhFrDn99NOViSOPPHKDDTaw1Xnnn1+uXDnBo0Y0z/xdfibySufOndFMz549WSaOEyRnnX024mQ6a3r16oX/QK/mEYcKWtYWAMJS5FjmdEKGphRhnMuvuOLAAw8UKowpPEi10UYbtWlzffwoQRrzXfHixXk27mikyEkqmU9NEIFUY0NJjsiFAUcLWqLyznHHHceG1JRWooskrGeNOXunnXbiNTpyrj1rZ/7HnQRQVpY4I9OK3XXXXeTn6yA8jypWrOhFMSkp7CMZbX7HHXeQZ5NNNtks82dN2UdoiQphTDVHh47kZBMC01HUIUjjFPGEliMkY5wLuh8JTlQv7rHHHloTJY94kkVwumm9mMe+DBg/uSAVBbGC2GYB9mRejhYqcTqPcIcXOYt4HMdcMpRTUGn24IzNHWeNYPBu7ltKLBCVJ/4mlIDZeOON+ZG7hQc7+ypWhR/jEFXBYSvuoyaDrL/++hE2hBEqXMwIrM3pNBLYSpaiUatWraZNm4ox23I6GVyXLVuWOsJYWJLcNU5VHsuUKcOkkdGRF7QTzAQgCYOo/mgAJXhRVCsjoUs+LJAXIkGIeotBpICyufXWW/Ms8ciw4YYbKke5P7BFTsLEH7RSTt1hGTEpGnUe2X0z/1rBDh5FiIpGiUxCy1jDtaZWv0h+rrGG/Aq1ukQvwkRuSmHCk0EKC1TnUp+0dmjSpEmu5Ab0f97aaqut1GSRFhSgoeEvphZsPrJGdnUGahpPNWzY0GKiqvl8pNg6TmBQihcYxNHOZdL77rtPZMoXfhFgarXwFswEwy8+CmYOVXh5gaZqoJUEyK/MRYJfvwUt+VdZZRWe0OLpJii52mqrEZduvC5nqLRG5s9Bc6enypy3sCyFNXHGTU+tj93AjMiyQlbPpSjEv9D31bXeRMnjEnZUlL0oY+OtgDruvqwTXs4Vjg6ym+hp1epatU8oaAOJEVShnxLrNmdi4ShAWVZZFKOSKvZEA1hk1VVXdagIiz/D265dOyErwrRmAl1tQpBiginoctVVLThVr/TAAw+40ISab8SBV2zIFIJDLRBG5Mx15QGVSKQqBzytM8jezZhFpLKq0ukI+S/aBBNF9MjsTKr4R9+mZ2IIMu0nqiM5weglD4WjBtkyEYlWVVUGQfm0CGcRRrlkQ4XG5iRkJRckVwtUJSqHPEtjWQRsbhDNIl7a20FukF/J4xeSsLNc5UdmX3311X1V0ZiUEfQ0fO0jCXVv3mUE92nKU46QafJHT0BOZVd6yBzy4w8v8pGawlASWINFPNXcibKd/TXISoZXkMGNv/zfIELmoNWACHGueuqal1UWjbzWhww2iTWgiZGfQoXBdTkWaGUs5jKlKrvo55+13l6kONXmzZsn8HiKBTharZELokvsGVkUGiKxBnXUFM5SyxyBpTzCSRpzFKU5ELqo1J6oS/+Kh7jSU9uKPSpnz/75Z47gIFkgLAWk9WJDBDIdc2mSzBP863XnGlm8KxKQEIuhdgnlRepgaNyMM+zJMuEXwYNvDDGGCazGTfnfLMEWhKE1OnSWIEftdJfmbIUINQeaJP2BQszX4hMxqC1hK6VDwMSfZpNWskMAcJxNIjd5nMyoSxuXPTIDFV9IEEk1R5bezT7I/E85VSrxL064j+uVFxXJNUNRnH0EntZHuWBPrIzCjWVkoD4fcZ+jRbUEFLEu2IEfIxpZg7ncEfyiFC+KJUphLz29RBYqFBGWpi4x7Dine8p6dGFwngqqI6RlWbl//pkdRPWyvmNshBWZOu/TTjvN62oyvVQDrYBYcqHQsYYQUmGIZApkAT0NkVhePHAc+Rmz2WWXqTaxrbrho61wLTcxC6kEG0doIyhrsrTskksvFZC20pFwHFGdmMtNB0kukGWiPf4GFtWcZWCLg/IhWlgPs7imFJnN0CIEs/LXpptuGokZUIGRCzfJLJEjXNlQjrA8phCfapo7kkg2iWHmxeu2En60xuVMJPA4gnZkYxOjMHXUc02DptZxMtrg995v/x8E/3v8SsD33HOPisPcNJQMsjfKqPYct2kWKAlKvJKEp0UqrwhTF2KLHa1nZd2lOihV3n77bUoqH2oNi1vsFF/D+qJc3OCw2JZrQ4wAl/NTEDBPoBMr5TAK0Xorbbyi2FWvXl1RU38xtMiQV7yiIcCUNpEe7ijusSfIVcWCV1wr09pPtdg0Jld5i/o8Zyub/+c//1HjnEhBcaPc867o9MhIgQLtIJTloQxnK/fjW205+IgtBJD1+eGlIKrdFHRtfpJX5GdkLadtBbc0UJo9FV7hEfZhN8XCKcRTwUuVKiWMyCZ2LaOmLPUK5mBeRjB46UNVsSBgpUcxYuScplJiiTSFYVkEjB4Io1qRR9FRi1WxqA6zZ8+23lusQUHlzDXx9J433HADXxM+MjP+lybWMLVteZBqHEEqZQV/20GTq6tldgILEi62CV+wtjoi7fmaL/C98FD1ZCy9goB5X61kXrkqGokn6/g6aivzOs6FRyzftWtXwjjdTR0eemAxo4N6HX+YTFY71J6Kaf4YIZ+9hYF01lxMUwzqdPb3lXj0Ip7kpyYfaXpILp5JyzuOs4m5nAzIUgRyqKJDHbHEFAJDubEDOSmOONFqHA16DjRmPtOQSUzmIqp3+cgrGMWa6C0MW64lAi4xwahKXC8jglNFDgdpL8jDMsxCTpQgAEjLqlKPAPJ9yakZRM9HO7qryIKKeSWLbkw5o4XWpH379noO9yNOFHFWtd5YZlvdJHbXR+JCvOWpkKavUmMfYck+bCvMskdmoJ9wHNqwmNGU5uyDTFKLN3ohJNEVNxUfJBQEjGDoq99COT6qZoZglVevQH2pwZJKCtW4mKPFkuJDBpYR4fbkUC8yIAJWzZSjIGAJThHBz1DSlv3d5zgCsKG49VRtZFhFQF/ijk1Y++qrr3HfYllsk5C5AOSvlUHAul52Ez+aD66Pb24JS4OEeSbHmgJJe6QCcIfAc8fmBx98cERUZtclPyBjFmHDYuoJ+hcqFBTJShx+chA3cQSP8A4f2RbLskkuN/G98NB/S2G55pq04kr4MYsuX4LEj4cCyqzjiEEjsREFSkduQ/IzPkLNLs38PJQwXnFNWtEuU5TTHAG7dkf9ITYmEpB8R1RGxrLeUgpIoikULUHA7vCFLsEa0RiRqasTUZkziwy/IWC2k4fiWIy6pi0fxLjAZ9ZoytBeELBBUGfN9/kErAoIEV5haN3xcghYaXNW/HREVcqfEQFHMpOoyidgZchZXCWIhY4g4LzwpVfkm7lQtDGxwuqOSBJP9slsuQT5BCwDCSCxFf0Y5qK7zBGwr+JA9VRTOFiuOkLzqEQGAfMierCnwLK4AAEH5IxNzEPZz5n/qw/DRmUEBGmGRsACXQljFuGYI2BeIBt30IJqTgkC1rpqdFQWccak1ghlVhJkkhyFCNzooGO8VmWMSsRQegjALL+DgNEh2WJmlaJDhw4VFTkCVlVVEyciVxMJrzGX0uars1gvuiKKI4YePXoEAVNBFJGKDSVkDKnMGwTMg9pkZd0CHKNgffnll+qjGEN7anoQsFR30/4FCJgMxAsZ2FnweNFxQjefgNGnnTGocxWRHAHLW95nDUGyNAGrxVZ6nWxco6w43ejDWfR1LVwlPAHozobeYiIXzMVHURDjh3kok44qlOgic46AWRsPWe9ClOYCTElyX+QLRaerdyzPFFRj0jiLF1ggEsFXMlDfV9lN1PjGsgBTrwWVF1nGAnOG2KBaiMeqkiL/bxVFJxodhjTUjgcBC3KSs5iqJ1SwVxwhhbUObMgajOaOjIh2JEfAmY2XfNPLPpLXhlQrQMC6Ey7QRbkWGHaI+xAETC+dink9fprIEXZgKHkRBCw8xAbxeJPRgoBJJbP09KYoaYW2ncLa9uE4dU9dUuLYVret3eEapd/+OQLOiLDkm1Wqn0ASV9Fo5gg4vmcmVtnWnaBGiqurkmU5BKxtktq60gIETGaS4CHqiGqy5eqzFkeaiEZ5ZHNGpjhvOjefDgWSqCO/HbQFdnAtGIRTEDAbShn5HgQsMcksVPJz0z45AnZNALkTEcu8zJj/K7GUFXXeFWmsxL8owE2WVxCszydgXsMvdsPrPmoyxmX+KlmOgF0jTtkHeNShBQhYWLoWh65zBOxaPlKHpq6Bc6NxKUL85lvQCoeyzqZMbGoRUkzctm1bGioojN6iRUsKuxBn0aEIaM5may1SrNdWuGBBOnuEgBVNTMmj1gspwcR8oh956ATtxiv2z0ix5Een7miiJTnmltXBbQ4imB5WHAsUIShAzzn3XBSo4IoYy7xiQw0RyhHW3CbcvRg7Q+SqrsK1YLUPwiMqqSw2R4pUutgcT1vcrVs3u5mNdFuMIIdjzsOXGE6O6UZFnoinYC7gSKu4ay0xouKlVLFJPAJzpCBQF9QINT2+Q6uGsgZbqZ4CXTxZKaspaIGwoxdTEExQCsH4FrT00+JoaCC+qxbfqlWtqMP+CqgLFUeKDh8+HA3jM1WsSpUqzCVM0bP2Nn5xIyBpJaTEUDjiTvxwoV27dvzCnnJVa+VdRo72XPGVTiqabaUo8woA9VS9kCGyy0oFLuJeFokK5+ri3Yz6K9mUCXp5RE7WcCGWpCID8rhizU3OCq8ZiJGWHLO/+j548GAyM2wMym+88QYzktmsbAc1juLWs1WrzP8mklXjWwIxJioZYonKUar4VEsnAj3ia0dTSphFFQj07t2bzJpCp/AmzkA5Tpfh3Od0amI7L3K0C5kVFR+PSgSLWZUjaMTL4kp0qa0sbH1UeeWDpmoER5tfQ6o4XXShDYGtP9C0UVxgsACixY4SlhNVIkUfGSgxFnMcLzhFJfWWkBacjlavGcGeLMM+IkrMqJ66WzKQhIQxLgfiW9Cqtn5dPvKp0ilZbOgVp0gKJY/K+IzFHOGCfQjGrehEARHMJIy5P/o5kG4ImAuYRYHGH3E/EL+SwsJ20KbYNvvgl6RmHwrqCfhL6MpclpQOagIClq0ynV4UDC4Xn9yn6bGer0WswGYujhaxItxuMpeCyje3ap5IJZa0y0zHLK7dDBmEnFBhEBaLv4vJDoKT6bhPTHKQACAJeQSe+qkM+qh02ITKtLAgdgPzuijiC/2l6kQ2kaxsyjVMJmCYwoU8Yn9OjI7EfdHokW3FjE2CzC659FIGj53xK/ioyIhwdmYEwYZlvest6SYHxYxaJz35yLjMLBKEWSI35Tg15Zf4j4bPWQxuMMCXglxqm1viRGBzYsS3UpyoXjnCMK2eu2AfSSH4Y7HAE8zaQRVMUFFfgrtPSG6K4YeQOmYJRRKV04m2Et4Cg2p0ITaTWmmYsUDEunYW+lchlRF7qgPEdr8IkSVgbo5uVyJtttlmTIljuAfLUpVXtF2ySzOILdAwk4khGjIlt3mLXThD/qgj7vgoZ1jBR6Evt1UKy3zF7qq5uBdMEtW2tpIYIYnKbg1/ow0OqJqBWBH9ZPDizTffrARwnsLB2V5XNB1hE0VWELOvEqPkSRKBmD+4RK5KBhlFXzkgPaSBUJY5RiUBpLdFJGY429LOIyVDjV5nnXXUEQ6W5AxFNpHkFSrrvhmNYHGK/EeWbEUFFzhPGsQjmDt3rnCkOJuIBuGlgNpQFumB9D0KjXDMfV9IZaQsxdmBZRRWJnUuOUnFEcQThWo6jaSHHlbMOd1bFog8oU8LI50iZX1oqjqrjGZiPopvWoI6ZXLabbfdLNANMKYaSn6RoMOQ5Fol9chuihSOMY4zMmuzjNbN0aKF1ioR6wkefiSnMsGShFfyCKbZUsX0BJobNEZ4/YRDVRlJRTubO0XngWlIZYyQ6rZS4xR3Hs8tZnbFlCV5QSGg4EYbbcRiwo8MbjpdJgtmBhSWtBADYRBlxREqheMsswkhGdn+EluDwuPch2vFCbLnnRgjjPvizcrbbrvNcKMQYxTCOJ19CKBwu29nxyFFtVgJEFTyiK9tKISA9xlN34annSWcFA6mcF/hY0Bx7ia3KnmOYAenq/5aE2sQMIG5GCmyLXn4jsBGcInGPpzCZRxEeAoqakILr5CTstS3WE7Zn02Iyj74RmdgMJIjeE5OydMlkZEB5hCuRLWVLGNY66mvLHK9g7xoW8UE91gmAtnBDho1WcanjMDveE5/TDxZIMh1onpHPuIyMUk7LvCi3MwenPkVYt5nW2rSOr5zBpo8MS8+3Vego7zSRToorwgpZ0/LvC78bE5rm5CcSCJQlskCR3OoYLaDYZ1GgoSDJKZNGETueCov8BBXCjx1SToTQyJEDuY6A06XYnwkl1Uhr7ADSdhED8R0HERmUa0VYFUFhyNiN1AHnK5JpYKz1EzlVIXhOJbBbRHqch+poEYh6ppfnBvf2lGUHM0Iaku+JRnftkhagBGY0cggfghJO3uyjGLrjijixyhHgsqjXG4yi7FH+rC8a4VCH0w7huVQwwAb5vqJMWPGCCSxweNClPyMIMXcZEOKOJeyAi/Wg2XMTjx7ymVTWYSQCKEOFUaOHOkpAxJJmljGj4SR2pxoJWNqPadMmSJB1Bm1yLUMEp+E9K4wcM1x2SOLCFkClgAKtE5QlChkmlNZLZj0p7JOjeAw1VOjx6w0jMWqoa+xDHI3bSIIevbs6ZE7sR5yF6yPpVAjE3AzayorIQmuUun01yyuVMV6H+MgjoHY1lMGFdmi3CZDhw6N79HpswjD2eI111UFFBrduhBBPAI6OjL0YKWYJjDa02E4MY5gBPtb5iNQDeIRAsYiNMIN6qYTgy3ApOImARRNnbjpMO7nYCULKHByRpvJqjZ0qBwmQJxlgZvAmALu+eefz1jiDiUvFnvXoe47DjG4cBw32c1Eax8LJIkSHOvVFF1OTlMpqnhpMDFTbti1lfJnMQHYHPvawT5xKElwjxc13fIt5mZlV3VgT4VJJaWaFsEO1tvBQdptywyybOVF7vvqq6+YzgLbWqld8BXITCPe79+/v0e5iXPBggVi0gKvaF2JQWaFiQysJAxIyPsqkQUkt4mCG+tdWEAq6e2ROzwYyxzh9bjpFYfGKRD6ekRmAse1HeLbm+aq2ESamFB9VUNjH+KRijx2szmD68dlvmYFy/KjEF24cKFXVFinSC72ESRev//++wVACBDej2v3dVEsH9aQKT56yrbo3FZoIFbqR7nSVlc2b85NSI5ZCMMRwiO06NKlCwNaTCSP3PE1ZxM6KnaGA02MfGfSXGKCzcNlFvOaSBM/rsNcbMgpnGsld9tfQNoqapw7Ys+2TGRPxZHYTvSi9JfswsZHpsgZwemZY5eAGUWXGBPhyDh7N5NKXOxF6zV/ot0FjXy1pyRdstEdd9hcIrMDRHRJB0d75Cv1mTEXJG7mnM7I8gVLWS+QvK694MfMrneQNrKAjvyOBaOkACLEVWYV7WbMAJzlFdvaRMsbdQZcOwWRoEApGa+zkpU0pVQsI3PI5n5OPIFnyGYZZpGDwiZGOoHKF2LM6Z7mxl8gqqBVMD2l9XfffSc2IqFo6hSjC47USgp+wK84z8SiYEZuOlddDcpwzdrkzNkTVD9Ps+dlCmxIa7dcstNLcDqXj6hDEd1/9oXM355jFtYTVFFAsLhNItIIrPJbIKLIw33hU8yqT4pv06qr3sJWuSCPhoC/eEohkiDxvYqixa/fgv43QG7rNNFw9nPCH4YGU7eLk7KfExL+TVDE0bPx2hCmrMcMoMMwjNbN+9Wn5UBDhhLMmqilyAcy0KJhxOyHDGPppYr8W7X/FZqPkpn/NVb2898E/yIC1pyafUuXLn3iiSfmN9cJvw96TA3s3pk/Airu4zcmEhL+VTCf1atXr0qVKldceWVu7ENge+yxR9WqVR/O/Hx9+UDShjkVKX8ELEJ89dVX+ZKYnnHwXzy7Ddk6mK222uqII45gzOzdvwP+RQQ8e/bsYcOGDR06dMSIEUX+2+f/AMydO/eNN95gT9DcRO+fkPCvAn7Sib7//vv5w6uPkRcTM39rL+H/G5999lnUdohvPv9d8O/6FnRCQkJCQsJfBImA/7owYvbu3btr164PZ/7Qa8C1O0888UT+rzkkJCQk/ImYn/nb3fH7fVdffU3+vyXJwfT/6quvxi83vfHGGy+//HLuX8olrCASAf918eWXX951110VKlQoXbp0gwYNGjdufNppp5UrV27zzTdv0aJl7vctExISEv5EfP/997feeuuWW2656aab7rzzzs0uu6zQvxayMPMX6OrXr//CCy/UqFFjv/32y/+38gkrgj+fgH/88cf833pfKSxevDj/nz38WbDn79i20Lfc+d3aFYqlj8iHTDjmmGMOOOCA+KG1xccdd1z8EYlYAORZ/iZLw/oCr6ys5a3/c+2wfJBtOT9jzmjzq/AE+6/iFXhl+fhzw/K/yvY7HFoAv3sHb+XLtiL7WPA7gsFb/3Xn5eCPvP47pP3HYFm6F3D0kCFDatWq1THzx8nHjBmT/ztZBSz/3HPPnXzyyaeccsoFF144aNCgFfmt73wU2O1fiCwBK+idO3dm8U6dOvXo0UMjo/QPGDDAHRgxYgTPaXPiY/fu3R955JG4zoH1mTL+hdn1198wLPN3X7/55punn346uyIDL95///0ufO3Zs2fcfPnlly0ePny4d++9994vvvjCeNelSxePnJVb9uijj8bFs5n/91lcD83889+33367a9euPto2/9/+2va1115r0+b6W265ZUrm/9Hx6quvxosBx91zzz3ZDx07MsK0adOIbf8bb7xRGxhvzZgxg2V69+7drl27xx9//Ntvv2WiBx980CvEI48LRz/22GOZbbJw5+GHH3bRv3//+CsKn3zyCb1s9eGHH86ePdtW11zTyg7x9+2WxqJFi4499tgCBFyzZs3p06d7xGKc5XQGf/PNN60JI9iWqBkROj755JO5f90/Z84cC+Jf7JEh95tociz+2R+p3njjjXjRgvDUAw88EFrAqFGjtL39+vW7+uprnPLVV1+99957sYwWhHGR0xq4LydJvvt69eoV19wXMoRl3HniiSdyHheBX3/99cSJE5m9bdu28c2uAFNQmVvtf0fmH8vGv5SdP3++Q4nXp0+fwYMHxz4PPfSQTYSiSBYSr7/+upDo0KHDx5l/uk0pa+wTf/Jp5syZ/GjD9zN/gtEprVu3cQSb54KHpjkd7WZNXAdE1H333edCUtiBm1wTRk7RPTyuVHmaWZ6F1Pjss8+MGgzuxPg3xNRkGbq4aQ27CU57xj+UjBdzIPPUqVPtwHdSyf5Sw2IZET4KiIGIE3CKBSAG4lxeiH/byrl0bNXqWrupD9QPB/lInvgjUEzEBS1bXu2R9QXswOO5QiFmIgWARnfddZeQGz16tI8imdjPPPNMCGkl7dzPWZv7uJ6DIlqkXvxVinCQoCVSrAygjQKSwFtvvZWzv6SQC8jDfYfaUMGhrKNDBg6KIPQxZ6v8tIrdhBPZfGS6bt26KQgu4l/V852y5pFtY09fnR5+zBWEAlA/PV0ayhErRW4qWXEzl6GOzgmZu+ncKOmU5ZpJkyaxeehegCa5OxxtfXT2SsFJJ50khsXDyJEj6RIr33nnnZzlJQt17G+xr3fffbevdshJEiBbyMO/DBKeEroLFiyYMGGCvPY6i+XKjsUF/njDPxtZAmaLo446atNNNz344IOV+/33359xGbpMmTI1atRwzf38sdNOO1WpUoXVzs78ce19M3/sfrfddttxxx0Fn+g84ogjGjZsuPvuu++9996iWZRf2qzZzjvvfMIJJ1jj3euua+3RhhtuqMNCb1ZWqFBBUMoZo169evUcoXY8//zzxx9/fKnMX6j3cfvtt7dSNMR6Aoj7ypUr77rrrrICcJINy5UrZ/P8f2LErwdm/ny5lRddfDGeIySBq1evXr9+/W222WaPPfYQaltvvbULfZw9BZD999tvPwtiGfU92njjjYmx/vrrb7XVVsqNWkBgN8+/4AJUbau99trrkEMOIUnVqlV9rFu3LmEOO+ywXXbZheJRa1hpk002Ic9TTz11+umnm2Vd77DDDgprCFwAyyLgaHScyEHMu/baax966KGyulGjRozWtGlTKjg0/iRZfPsI2Vx8ySWlS5fmCGuIoXUdO3asUsJlrM3yZ551loTxoj29SHfKMsXlV1wRWvBp/JvFww8/3Ppzzj3XR/JsueWW1th/s802q127dqzfaKONuO+mm24qX748x+G8nPv4ggxCC9VlFF3yl28bNGjgJhmoZpnFzCX/xZjAqFixIiFV21gvh5277rrrUoeaXhSuWnVMKZJZjHisYQ0xXCg9nEKeF1988eijjxaQPG5nFmA3fndi1HcVaostthA2jOyaEZzrFDKrU5UqVSIJjzOaQy1jE41Ctcz/X49D5QUf+ehCo2NDFVPkKH+ClukEid3UGqe7JgYJRS99GVO+CAmWkVxYRJzwLBf4KD2bXXZZ/PUAkYzAmF0M2McrYfmBAwfGDt6ys55D9cQTQtEmsrtkyZL8ft755/OsPVHpEmv+/PPtt99OgBNPPJF2WhNFmcXsA9wn/nEAOzD1QQcdxKomHpFjPRWEOmurrVdceaVTGHO77bYT+bzAcbSzXvWIP2OixItPdiAeIVUeIcd04A6N6BUMIe9sRR7hJCTs2aRJE7oQg4WZyOZeV6+lkgQnRhyNDHhZGhLVtmSmuJKSb39rdGl8xPJC1FdOtw+ZXbDzJZdeGk+vuqoFGWgRaSVOOFfM2IFeSiW/UFZlI4BlyhrhBaqjZQGbOF3F4wKR4BWWR2NhjQJgCopILqaw7NRTTxVRwkzuIGzJ4nShm8tQp5P23PPOs5JnyUlslilbtqy6RJ6oAIzWuHFjH0N3YZzjVNzMDrysdHO0fUguTVy7wxpqINPxiDiXC2F5Rclg06JFS1HHyPRiE7qzg/XiUDyQ0AV9fWUiTtRb21AJiv5SBtmHzAwbZccOHETakO3fgF+/BS1DuFDFEVjMetnllwtu0cBwsUBOsq9a5lqpkiqaX2HBZyJMsWBcgeuOeVTccLaOPqhU9edj6epdhWy11VYT9K5llDA1ZXrEVWoodkQq2k9RstZaa2Em/bKsPuOMM3Lr9V9iUVFTag0Ewe68K+VsblkOenB+NXwInT333PODDz4wE1gvyVV8d4Sp5lee0FdKKIuOIEDz5lfZGVsLnaZnnilG11hjDdyAni0mDxm0e+tl/kdXeELoSAPdnE5CdZM/IkzTx5iEXH311aWcSVTAuRavCp+drbTecU7PSvxbLIuA9eyYiSkYwem0XjPzv1ZkFnJyImt4RDxpE1sZJYnHpDxoRpQnq2b+F2zyk829y2UlSpSgsgVKgMxUzTUHCpB3w316VUZDYKqzJC9WrJhpzybOMkINGTJEOXAK00kkIiEApELTcF8UOKZTvtlBtOR/d0sSFi9enMcpa5nFbmrMbX7DDTeIPcKLiljMlco3ZXnTPIpLVF7CbLvttgiGUkqeAq0nEGwCVQBwOo+wp2LE17baYIMNyEkeqrEGpyM2fLbKKqtYzDU4Gy0JSw61YQSzxsv0Qy8KEowwypkgUd+ZUV7IDtlkvTueYiaS8Bfy5j72DOJkN0ZjBPvw15133kkM9chKRztRaEkugjEXgtQzuZ/RfglkmSopMmUcT7E8vtcaumnUYENZyaeOsNgOWhPhQbX4Fld4NrYC+1vAvwJDSypCtLME0L2hELrQlDoihKgaL+SkC1FnrQy2Q9JcL9eYgjt0nD4yCPs7KDfwuSmE1BaOVrX1LjzCj4qyZYSnV6xkVV4TbLbiZZFgsUCSUFJJYFNZ4kgKHGyBwi1D0UOMccKAi01UmmaWcaI4Z39exgGCRw8n9XgB33CrPDLhEYPio0aNslswJe4hg3CNtKI4p3z++eeyDwRt/JlSJ3I680rP6dOnGypkh+iSC8KPgkqNSGMZlmf/jIoFIemojN3ZnG3Jw2VqC9d4ynESk2dlKHa0ONpKtZds7ExOgY2DRdrEiRPJIMIZCn9HqOR0jzYu9qRvfEuDMa3X69jHTRaIIin3o564cCjxbCJudaguZIc5B1NIXlXdRyGH7JmU/CwvTlQAQfL666/LaxnKvAKScXCKwMPQvEMpiSCAQ7B/CX4lYJFqkEItwlSaqWVcGP2+fNO/syavC2uLTZmmRrZzrZzhWrGu3OudM5v9rAKKSxVZyVBWMLG0CfIWH2JFAYq/iapMKFgS2ALRL1YEPfYS2SKYb7zFzVLLu9JPfF/ZvLnK4iY3q5gKnOAQmu5o/zPnZ6FMCxQ7aMd0xxLATR8dodHTk5KTmlS2p0fz58/XcGg57eljpJmCKzkFh5KhKCBamSni1SPxKq9ElbR0gU4WLlxoT1Eb36QSYTKKKRgWu0sDtnXBIDpllY7WnnplibhLYVkELMN9tLOn1shAYa3wPf7445HqPKJRUDfVrMxOS/Dcc885PThMPVVT5AC7KQosH8ZX/rhYpiFd7mM3eUuvcJ+aZQetayz2nyRUBdiBYHbzVLFgRuvxJUn4F9+QzaE87iymVlzIydT533tHaTxuPbMseaVpU92SsVgLlRMv9y1TEHhyXhvkWo3jINbQRHoxFuuWtCYITDVRdL744gtxK0iUIa/wu5AgZPQcPOgjvwsGdhMh+iRPNfi50xV6Nreb5kBgONEyW4kKfZtug0/lhcqlazQ8KWSyxubSB/fLL6rFVoqjNdRXaiO0XLOSOHFf5IhVLpAFbCUN7SZOMOsSzTMIElUuXfMCi8k+XGJxfK8etXBHpKRGhAyq7X/+8x/draaTZ2kqmEUCR6NeqSrBlXutgKwJHvKur7oQDKc4Mrjw0+tIwLFjxyq4goHrZYQ0Fyei8exzzokQ9VFAsj+ROEUhJrPoEhuUBToKlWibpAzuL0BOrE0vAUB9G06ePFmhYGqPZs+erTgIOafYh2HJqVLlsgNN6r9lLm8yAgvn21/YaKfoKCWRB4KJoZA1aCd5TXieohO+UAEki2AWRTQVeG5q0Ugr0dQ9oeJdJdTEGQYUIS5oSkF1UmAjJEaIb1kt6zcosTUzcoRehFRoCVNGBSCSGhgNHwvwHb7nr2hZnnrqKUWVnBodPMpKuJOO0gFf8hEX5MLYfXUpTlQwUTgGdU1lL9qEVcOMbOJQjY5Ka3+KW+ZddlAiGJA6Qk6ESyuxobJxR1hM5qpXPuJgyYVx5b71aj4FpVWUdLtxq7ARGGqCmV7OKgU5Cf/Z+A0BiySJqtNkI3MAr3AbZ6gRkt+4tnwCFt9BY+BCUtkBAXC/9ioquEcIWDSLM+nB3ArusGHD5Jj9tW9qrjKBkmMeIo/uUg3KEbCw5l0Vx1QhLPSnBmjZG/9HhAIErASLVMVOUaCLaig4HC2vCiVguO661squSLVSo01l8tNOCqmwFqAN8iiFCJiEGhSlTe2Qn7FDjoBd535RkNisqiJjd2FqtpC94tieZh3RWejfmvmvBMwUXlRwkQfd1Tt5Et9hkxjSb2kCjh5TjVD3qUZBmwh3yUYYDLccApbMgoT1IrVUN0mIgKWoWmwlNXMETBKvk4T8OQK2gBEUL6ZbmoCJJP1UZN1DELC6L0hwkgV0yWegIOBolZjUzsor8TjdHa+oqooRAjBpiQ37i1uiiiLym5OwiNKgN6caCHLFl8GVJMyqwHG6+8oi4+AtjQ6bYyNHqPU5AuYd5d7THAG7ycLKsUZThIsxNC9BGMdWxggVk4VFb46AvUJ3r8d3wkU4zv7444/tzGuyaUUIWJrQ1Ec3ER5l5ZFrwYkkChAwRyBaFnCtiGtQxA9boQrpr6nibu+KLm2Boi9yqCBW2cTO3uUm3YzJRiSL84jhHAG71qeyvwBThWWNouxQbwXLciigGa87TgovTcBy0ytGKI5GKgoFB7FbxJh0UDQ0RoLWoJxPwIJBAOQImDHldb79Bw4ciGKlKl34KH5ItCwCNtpKK5FpZfDQyJEjOYW/8glYRWIr9xmQUvkELBlZTJVbDgETTEoOGjQoR8BuCjZFQ7GSCMGU+mBRQQwBvCIEzDVWqn453YV05sAl1ZjlecG141iPo+1MSOvdVIEZhONif5YHarK8aKQ+yAJi55KRDFZ6ZckBmURYZ511iCRJ1UZl0Iuap8MOO0x7IRNN+UIoCFgAE4DYMSf845ElYFZgJp4Qr8ouOtFy6lPEHItIS+nN4toWZhWRYleey3ApJxtVWPHqFeVGNOA2DhCCduNLmYCAmVs6eVfTzZcYzruMzuUaWMvkGArBf2quBBA9EkbJMMWSx278esopp/C3om8f8pjejJLqvsZKJRKyMhBphVKg7hiOESTZtK42adGipXZBTCsrkhlLOUvaq33xGys218151K9fP6aQ/17XK2gapJnjkJMKjpsVaKUT8Qhc4YVj7AAshuwVQddYSr1gW2mptMl/RvaVmozgkZLNtqoAOkdLBJMkITwIUGms4pM2kofKZJPAPrKnvGJtVpIk6FPU2lYL5SZllQZ1P7chApYJTkG3OnQGV52x4Prrr08jimi2EDAXc6j0kxhKiZJBQa5Xl81JFMFPrM1iNFLX7GCZ+UPAIAnZOGvWLGKrWdpt7VGNGjXCfapGuI/A0lU25vpcQooWN7t37054evG1V8TYuuuuKyQYiniOiPUgZmQsZZmFH3USag13Mz5dnEhCEcVxNlG8RBECpgUC0POxhvAm/IwZM6jMR8qlSOBuAaCriP4DrwsqOyg6QoXLiIE7Scv7lqmwKgsJhbG6KS+CJiNu0Y8j5Jc2n5eJxyZMqq6JYeozgn1QhTXCjC/sTwbH8Y5zBQzBFEqSiMmcNxmcI/C3MNNDsHy7du0EAL4hBuaWmPTiIKbjULtpQYSHU/QKCje93BQ5kXqMo5NwFrfecsstugdCIjNxjjuxL4IRP5QlFctbxjUSCrmymxTgO8IooDSlL1GjI5TyNkchyq5sxeJCFynSVOeBMPhdKRCEOE8tDh15P6ytoZGzssAjjpbs+lc3JQL12YqFteMizQ5KEJURJ5W5GGXKAvEgg3S6YX/ysKdY4miny1xCetdU3bLl1UK0T58+NvFUmZLpUl7jItKmTZsmkBhWs0JN8cPU2OK2225TzUhiExROHdopULJALrgjCMmj52NnlhdIUkChCEINiDen09dT4iGq6Ak+//xzxVMg0T1anICAoT5rMEXYmXnxLhnE7eDBg8UD3cMaHMf+Od3FXmyiaHC0OxzNVjRSgtQilC8G6BvlDuWLAZaxm86D5amsURA52F15V+SFsW6bVNjdW3znFB+drpIzCOG1a9osOzhRqKvPygWy0HXJIDtY7I4LQRUS/rORJWDRKQGYlS2EMshSJoj+XSQpndwvhoSUfBZG8k0W4RLBEemtCogAldp9PpPkltkTlUpa970rdUWYEmlP+6MTBV1uSy2ZrxVVs+QkGrBDTHUIA0lbyTG+SgCHinU5aU/1y1d8JiBEWKRrKAUyUJlwn0h2ExMIVV3WLtgNMdhQ+lFTvXPTK/o7gbjvvvs6iB0kmARgDSmEFVQ06afJUFDYhHZxtK3EnLIuKF34aNsXXnhBfDOgAqFSCz4J5hUhi8sRhjxhBwakArZzIS6FbAivHMgBtmUT7zpUK33ggQdSR+KNGTOGUhJA4BJesrnDR9R0inBnbWeRP35hFVhD7VOGqICHmB0BGM581AR4Eanohb3I4AiM+qoeO6M6bnKBO23CODzFdIqIPDegKLgKq7MiKgig4+FlNYuXw32KYM593Oo4HrdDyKZeG3ndZAEed5zFJFSM1ClVBmtSyrgT64FUnMK/kp+omkK9l/JBa+owi33IZk++cDq7md6QBHOxKsuLRh0VN7G8wqQ8Mayv9rShIESlPK4Qu4O96M4IHMraIa1lBj610obu2IdlXPAdFnEcjoymwUeTBxksoHh8d9eeru1DF9XWW8yIEfEZ4RlHQlkQBE8vUZT7JSxpyJUS9oEHHhAenhJV20d+ASPU7SmtxFU4xel86iy8axTjMpszgh3UTZJ4ylwkFP9Osb8w9pS5CGMrTZvXrbE51Uy3rCGhJIJgdihepKxrEeIV7CI9hYGDxBso35988omyqwprlzU96oaQFoFiz840EvPxfREsGNamnZuEEd6OkD7CgwzSSvgJ12i5KCj1HG0ac0cBUUnsTGbqC498+8tT3g9H09cCLxKMvm6ytjuEFHXKBRlsGGklgHmZDckgDCKjI9i0jHRnTCFhT4LJAgso7nWlyYDImCwvkcV5iRIlpAxNA6KdMa0ntmWKkkyJgBcVMl0xiZUBvg6LySbR6wgicTppvUtxm5CN9SQRgTUfoXs+68ePqHOO1iuoCeJQpCl3jCN34huHTG3PsLyuRd2gcmSfzoxN2BmJaNZ1A2TgO0TuLGEpAi3u2bOnU8LFcV9mEVVKykHmsgMr2V/nF//85B+PLAFzA4OiYV28Ns1HNKCJdgdcoCUtUnxUK/VZcW0kiov4Hqns0scpLjHZqG42FEP2jGU+xgUUeBfPCSl2V6q8HiutyS3LHaovMyTF9fjx4301A+XEiwoV0I97y57aWAp6ZHa0mDoGFIt91HzFiyEzqONUxqYoLVpFBFysWDHdmZvxf/6xVViMMBA7uKnhjWuwkgVcUAEL+hiHghHKSvv7SnLHMbj7LjIiLIEJILeezamQ0zo+SmyBnpPTKBYmsiwnkh1y3a7iZWTR1LNzfFM3QHH9BFNQnJzxYqHwlHdsbofwGmPGo3xP5bycsU1Wknz38Uhcs0/IQPh4y6PcPqzBCKIRF44dO9Z1LA4gDKMGjicMG8ZNZrTP0KFDGTaMD+5wDVOwm+Iu0iwQOTFPhMoeuYCcwCzsqWLEwnxtZx6MRyTM6aj2qW7aI9dsiMmUY9VKP4cPWJv8GdGWcDAZSJv7v86xYWwCcZzIVJtUTFkTgpE2Z2SeDSMI7FxOEThnMXHF3eKBzCxgpX2IahP7xxofc8KzMMsTDIQEsVXbMIuDXDMUmV3nHOQr+WMNszMjkzK1ZUwUMgORiM2q8dHTeb/8wp2LcKhNCMa2jJzTkV60syxn7chcugshYrgWrgxONSc6iNndz7lbCKEBewrsuAOskbO/lUI952gbhtj28WLcdMGG6ApbxJ38tKI11cicS0lmiYJgK+fmhM+ZGnKvMzv1td1697AJ8J1tRUvuXaagsmBAhOedf344NAcKxjJH5J9SAFQWEmyuwwvds+//gnxHh1uBba03qtIx7kBY3n1PrQx1HJ3TiwXIn4tqaubcao0Ai+twMXVYmBnzw8YOoiv/u5j/bPz6M+CEZUFwXNm8+RqZX9TMkXTRQu4ZzvTsOnr5mb27XMgEQz/G0nqretm7f1tIe80HpxjFlq4p/0twRP6PLbGRgcD0YIo1MkabkvA3hY4kvg/8p0NP36bN9fl98NIQPMcdd9yOO+5ophfw2bsJ/yAkAv7v0Kuq8k2aNLn8iis0pNm7RQrt+VVXtWh65plNmzY1cmXvLhfGgubNr6KFic30kL37t8Uzzzxz5llnNW7cmDpvvvlm9u5fA1r7du3aGc1199lbCQm/hba+wHd0loZp8q677kp/d/YfjETACQkJCQkJRYBEwAkJCQkJCUWARMAJCQkJCQlFgETACQkJCQkJRYBEwAkJCQkJCUWALAFPmDDhyubNL7n00vbt23fv3r1Fi5au77333lmzZvXq1evMs846+5xz+vTp8+KLL17arJlHl19xxXPPPXfTTTd17NjxjTfeiHfjvwsuvPD8Cy6wzH/9+/efMmXKdde1PuWUU+w5fvz44cOHN8v8n0bs0Lz5VS58vP76G2K9E2+//XYXbnorVsZ/bdpc/8EHHwwYMIAkTZo0ufHGG8k8derUa6+9LrfGesu87tr+8cuxr776auxzawbx6OWXX543b94jjzzStGnTs84+my6530h0/7777rOMwBMnTnTn008/palNBg0a9NJLL1140UWNGzcmfPwthWnTphHm1FNPtf79999fvHixNSxw8sknM8vo0aM7d+4csrHVZZdf7vqKK6/Mqday5dWPPvronDlzvvjiizvuuINq551//rBhw77++usHHnjAgscff/zHzJ/mYHwfKchc8S5z3X333bFJ+lcKCQkJCX8vZAl4xowZiG3ttde++eabMVadOnU22GADPNStW7fq1avHX+nbeeede/bsecABB8Rf7Iy/vYKN3n33XbRx0EEHIRVvIZ6HH364WrVqNWrUwFjxV4rc2WeffQ499FDkdOCBB8YO9t9mm23cxNP77rtv5cqV+/bte1Hm/5V03HHH2eeYY4458cQTS5Qo4Sz747P9998fA51wwgnFihXDgh9++OHFl1xCwlatrt1iiy2st8Pee+9tB7T0UeZ/ioKkCb/llls+9NBDCNhup59+OmZFbyT0FQeXKVPmmWeeCVN8//33bpYuXdomeNedrl27skytWrXIaXPK0nr11Ve3z1dffcVuxx57rL6hXLlyhB8yZIhtW7du406FChWannkmmifb0UcfTXePLEOcDRs2XGWVVQ4++GB22GSTTch2//33b7fddiS0xlN87NzNNtuMkbUac+fOZcbixYtTn1S0sOypp5666qoWJHHuP+Cf9iYkJCT8q/Drt6CxTsmSJRV9HFC+fPmtt94alzRq1AiDmupeeeUVIylKwzprrrmmm1jNTBZ/mAJDI7yhmf9HoRna9Fa3bl2UaSuUHP9Q9Z577vEipjnjjDNcICEsWLVqVcOip+j2iCOOQNgY7j//+c8117QaPHjwuHHjkPTGG2/sIB/xK8JGaTZ3ccghh0yePJnAmFgToD8wg9qqfv36q666Kmm9Hn98x8i7/fbb9+jR46677tpoo41IYmwlnhd/+umnsWPH7rTTTkbY3J9fef3113fbbTccj+8nTZpkfMd8zv3444+pqUfxIvokBkrGkUbY7777DoOaVjUEhx9+OL5csGABZelu7ieb7oGom2+++Z6Z/yuioRnB6yTIueGGGxKsT58+TEFfjUjt2rVJOGbMmF122QX3M6nGQk9gpRON7w4lFbNEN6O/CckTEhISEv4u+A0Br7/++uZUMy5uK1u2rKJvPMXB8ZfhsO8nn3yCgDFT/H9jhv/yv75HwJc2axYEfMcddwQB40hzLXpAS9b06tULjaFklINUdt99d4PjpptuesGFF3qKgCtWrOiOE4OA4/uuOQJ2jSNtqBVAkEC82bNnYzUjaRBwy5ZXW4aAsaOVaOy0004zPl5x5ZWlSpVq0KDBkUceue666+L+F154wXjqRetJi/sJHH+BFkaNGmXuRITY2qHmVJsbVdEq9rWJ5sPc6RXM5wIBe4uVMCsVDjvssPj7bfGn70aPHo1HNRbGelLttddebrZt2xYB77DDDg7SoyBvy7Q1Jn5NiRMN9zqDOnXqVKlSRa/gkYv4f5sEAdesWdNTOjImI2QET0hISEj42+A3BIxZTZnqfrt27cqUKWPoNKIhCcw6Y8YM81m/fv0QMB41xbpvCJuV+Yu7rVu3MX2iRlOacQ1Roajjjz8e9ZYoUaJVq2tRUc+ePTGNMXT69Om9e/fu3r079kK6uQl4vfXWuz7zvwNCnzkCRpa4E1+6NsgieDPlzJkzzcrxPyRw3NnnnBNTZv4E3KlTp1tuuYVGdvCig95++21TptbBBGz4RmBaDcJ//vnntWrVOve88+JEiAm42WWXWbPOOuu42G+//UzAyA8l25BeGgu0bXIlHpq3D3MZc1nGmEtNM/HIkSMdPWLECLJpR3QMF2b+T4VTp06NCfi888+P/7UI2tYNIOn3M/9nU3PtgAEDSMsszZtfFY2RzXMTMC0YkwVwv5aCJY3vHLf8v2yXkJCQkPDXQZaAP/30UxMeumrT5vo33njDHKa+IyqsbADddddd999/f3Q7ZMgQF7incePG1nvUtGlTPIRgMIqpDonij86dOyOV6tWrm1zRsKdGZFxuBs392V789Nhjj5mzzXCYyWiIop544gl8g5kQEjHM3GjJhGe0JaHTy5cvv9VWW3nFTHnW2WcTyQXe7dixI9ozkj777LNGTBTu0dFHHx0/cDWzYm5SaSwQakzMuNPNiy6+2OZIEaOHYAsWLLDbFltsYfZFkOZgU+/222+PFDt06ICAWQBzr7nmmk7Erw5CkO7Q14tUptR2221HGHduu+02HYOVplhHHHLIIURyNFMQ0p5oNX54rI2wjLnifw+H+7EvwezgK17XAay11lrXXdeaqWlhgn/ooYe0PiTRxOhRdt9996uvvia0SEhISEj4iyNLwMOGDVPxFXo0gIMxh2sMN3nyZAxh3jKcWWM8deGRr4jBuOwaBZp3Dbh4zsdKlSq54wIRIr/XXnsN9xjdDj744Pj//QWMzvaPZV63oQunu3YBRltTYEhCNlP4woULbYin0bCp9NXM/zre5k8//TR2t8wmugHvxjUC7tKlC5oPmRtm4MKe7n/xxRdoD9UZ5XFz7gfAc+bMOefccy2rUaMGqjNGI3gfQyQS7rjjjhdfconNLWAT47L52BxsuqXU999/zzK6BN2JHmXKlCmXXHpp7GbIDkkIEBeAub1ogjfXVqtWTW/hdGdh/dNPP90C9ifD9Zn/Q5+PderUYSIX1hCG4i5M8IZgR/BdaJGQkJCQ8BdHloDnzp07ZsyYt99+e9KkSdOmTXMR1zhvxowZzz//vI/x/w6LR4DA0PPozP+yamLm/0L1zjvvuI+Q3HHftbF18eLFxs1+/fpNmDAhfpYcsJv9Mzu9HS+CO6gorj/55BNcGNdkI6G3fDUHI+PZs2f/mPn/99l83rx5No+V48aNiwuvTJ06FR0ixbhjTW5ZDOLEMziOGDEiflcrkC+YBTNnzvzwww/jI/VdW+90Kjvihx9+oJRD9Qq5b/8SG5syWvxft3BwvJ7blnHCPkD++EU2k/ebb75JQrJ56ibzWvDBBx8wtc3DQWyVb67QaOzYsQ6N7xmEDAkJCQkJf3H8+jPghISEhISEhP8ZEgEnJCQkJCQUARIBJyQkJCQkFAESASckJCQkJBQBEgEnJCQkJCQUARIBJyQkJCQkFAESASckJCQkJBQBEgEnJCQkJCQUARIBJyQkJCQkFAESASckJCQkJBQBEgEnJCQkJCQUARIBJyQkJCQkFAESASckJCQkJBQBEgEnJCQkJCQUARIBJyQkJCQkFAESASckJCQkJBQBEgEnJCQkJCQUARIBJyQkJCQkFAGyBPzpp58+++yzvZeBwYMHz5s3L1YmJCQkJCQk/HFkCXj8+PENGzZcd911ixcvvs022xx88MFHHnlk2bJlixUr5uONN944a9asWJmQkJCQkJDwx/Hrt6AHDhxYsmTJNdZYo0GDBqNHjzYT16tX7z//+c8RRxwxd+7c7KKEhISEhISEPwO/EvDgwYM33nhjBHzaaadhX3dOPvlkBHzUUUd99tlnI0eOxNC+Dho0qGfPnq+//vrChQs//vhjN8FNr8c18n7llVfiZszN06dPj0cfffTRTz/99N577z311FO9evXy+owZM+KRnfv27fvyyy/Pmzfvyy+/HD58eNwfO3bsjz/+aJN33nkn7rz77rsLFiwYM2aMR4sXL14iekJCQkJCwt8NvxLwkCFDNtlkk0IJePLkyY0bNy5VqtTWW29doUKF+Db1448/jmgrV65sbj7yyCPr1q270UYbVapU6d577z3llFNKly5tt44dO+LI5s2vsqZixYro84UXXthrr72qVatWtWrVY445pkePHnvuuaen2223XdmyZb1y8803Y+imZ5655ZZb2rB16zbBsjfddJOnm222Wfv27YcOHbrzzjvXrFlz0qRJGdkTEhISEhL+ZlghAp4/f36nTp082mmnnR577LHjjz9+1VVXrVWr1ieffHLssce6btXq2iZNmqyyyipo+LvvvjPglilTxkfvjhgxAiuvttpqderUMfIeffTRTrnzzjsx65prrtmhQwfHOQWFY+4NN9wQx7/66qvPPvtsuXLlihUr1rt37xBvwIABJUqU2HTTTbH+lClTWra8Ov1kOiEhISHh74sVJeAHH3zQo0MPPXT27NmYb/XVV998881x4XHHHYdcq1evvsUWW7jArwsWLOjVq9duu+1mrgWvmIa9ax8T8FZbbYVHDzzwwNq1a6PYa65phbmdcuFFF7377ru77LKLTXB83759t912W9f2NxObm+253nrrOXTYsGEhcEJCQkJCwt8XK03Ac+bMadu2rWuMiwsRpAnYYLrvvvu6mSPg+vXrG2o9MtG6DgJ+8cUXkXHx4sXPO//8kSNHvvTSS+bjHAG/9957aDufgNH8CSecUKFCBfufdNJJiYATEhISEv4x+JWAjacGVpx34oknxm9LuUCNhx9++Ny5c4OAEWT//v1RJmY1wuLpevXqrbLKKtjxhhtu8G7dunW//fbbJ5980p077rhj3XXXxeJGWI/q1KkzefLkWrVqWW8fT69s3vyBBx4IArYP3t14443Lli372muv9e7dO/4RVKdOnRwUr9gtvgU9bdo0e95zzz1fffVVVvqEhISEhIS/FbIE/O6778ZvTmG4KlWqNLvssjZtrt9jjz3MxJivXbt2CA8Bb7jhhpUqVSpVqpSptHv37kOHDt199929glyPOeaYzTbbrGrVqvfdd58Z2v17773X/HrbbbchY49s+/LLL/fo0WOHHXbAxyVKlGjQoAFKDgI22u60006+Wm8UPvOssxCwt2rWrGkrK43RZu6tttqqQ4cOegWDNfHSL2ElJCQkJPxNkSXgWbNmmSyH/IIRI0aMHDky+2HIkDfffPPuu+9GwOiwV69eTz311FtvvbVo0SITcLw1LINYPG7cuHj3wwymT59uoo1HrhcvXjxmzJinn366b9++n332maODgFF1nz597GaANte+/vrr8QqOHzt27Ndffz1hwoS4M3HixG+++cZxTiFDyJ+QkJCQkPD3wq/fgl4OFixYEL94tffee+PX7N0/A7j26KOPRsANGzacM2dO9m5CQkJCQsI/HStEwDNmzGjV6tr69eufcsopTzzxRPbun4HRo0efccYZxx9/fNOmTU202bsJCQkJCQn/dKwQASckJCQkJCT8uUgEnJCQkJCQUARIBJyQkJCQkFAESASckJCQkJBQBEgEnJCQkJCQUARIBJyQkJCQkFAESASckJCQkJBQBEgEnJCQkJCQUARIBJyQkJCQkFAESASckJCQkJBQBEgEnJCQkJCQUARIBJyQkJCQkFAESASckJCQkJBQBEgEnJCQkJCQUARIBJyQkJCQkFAESASckJCQkJBQBPiVgBcuXDg/g2+//XbRokWLFy/+8ccffQVP582bN336dHdicaH46aefZsyYMWvWrLj+9NNPZ8+eHY8KwNPY1lfXcbMA8tfEHXCdL0NImFtZKDyCWJm99Qfw1Vdf0Sv74RfMnTs3bjoihFnOWSuyht04Ivvht6agyA8//JDz1HI2WT5y7oacu/Ot5FD33YmP4NGKa5f/YgHQ7vvvv89+WCoYctq5iAUJCQkJ/0j8SsDdu3c/6qijjj322IYNG/bv3/+qq1o89NBDd99994033vjUU0+5eeFFF+XXzQLAu7fccstBBx30+OOPf/DBB23btq1Vq1bPnj2zj/Ogtnbt2vX000/v0aPHmWed1bdv3+yD3+Lpp58+/4IL7NCkSZORI0diPsI0aNDAxz59+uAPazp16tSq1bUkb9q06fjx4+PFfCjit9122x133OHES5s1++STT7IPVh4Y5cknnzz66KNZJnsrc5NxjjnmGDc//vjjiy6++JFHHrn11lvbt2+/YMGC7KI8jBs3LhRv0aLlBRde+N5772Uf/Ba9evViGRYINV977TVaMwUXeLdz587cRJJTTjmlUK1XBM8++yx3161b97jjjuPu1q3b3H///ex5zTWtvvzyy3feeefiSy6pV6/eySefzLx0+eijj/K1C8EKIKddBE/27lKgnVMESXwM7bzFIHQkA+0I9sADD8SChISEhH8kfiXgG264Yccdd1T+lOOhQ4dWrlxZWVSd8SiO2X333VX8QkklgICRyrrrrquOT5069Yorr1xrrbUKrcJffPEFdvH0jDPOKFGixPXX35B98FvYbYsttjj7nHPWXHPNLl26KMd77rknAt4uA6yAAzBQ9erV8fTaa6+NUbJv5sHgXqdOHQTprHLlyr3xxhvZBysPXPvMM8/svPPOOCl7K3PTubvuuqubiKRMmTJUO/zww3Hb119/nV2UBzsQlcC77bbbhhtu2K9fv+yD32LOnDlUrl27NssbCh999NFixYoxxeabb37JpZdiR+pzR+nSpXkq+04eHO3Fl156Kb4bUSjuuusuhj3hhBN0M6NGjapZs+ZJGTDy6NGjGzdufOCBBzZq1GiXXXbhBXK++uqrW2+99Vlnn0077Pjdd99lN8oD7biVdhUrVjzttNOyd5cC7XQSLDZ58uScdnbebLPNNEm0e+KJJ6pVq4aPsy8kJCQk/BPxGwLee++9Yy4xbh5xxBFt2lx/zrnnGoMMvphPxZ82bRoOw6DxDcbFixdPmjRJaY5vNWNupIKAXT/33HPINQhYkTU/WfbZZ5/5iDivu641rrrnnnvU92UNOvfee+8+++xz3333bbzxxmZBIxqqcKL7OMykZbcrmzdHrk5Erqbk7Jt5cDSSxr7t2rXDMWPHjtUcwIwZM6ZPnx7XBj6TsQu8RS8WQKW+xrdASfvuu+9SEzF8+umnhx12WI6AFy1a9P777w8ePPiAAw5w0wTsiA4dOriGMFEBEHKbbbahMhrT07z55puYzP7ffPNNdsUv8Hrbtm333XffKVOm4D/UyxQ1atQw0Hs6d+5cE+qWW25ZKAFrO5hL58R3iJbw7JB99guCgE2irvVVhs7LLr/88iuu4HcaIULKestIWrJkyWuvvY4HaXfnnXciaSZdekMYMWIER4R2zZtf5c6ytGM3uqD/nHbcqpe6/fbbPRV+dkgEnJCQ8M9G4QSsvDZt2rRr16633nrrRRdf7I5aaT4+8sgjK1SooEYPGzZM1VY0ETP68XT8+PHPP//8RhttFATct2/f9ddfHwEjMPtYZmzyompr8/ie9nvvvVe/fv1lfQu6d+/eCv24ceNww1tvvYUP4hvgqN0pLVtejWacde5557388suYRlsQLxbA1VdfQzVDFVJ0FgZV3JGEJgAHHH/88TgMWxiUhw8f3qlTJ6KaX5EB1tE0mOcMuOZCU123bt28ax/bom1c61x6aTvcpOmpp57aq1cvJwaxLY3PP/+c4g5iXhOtWXDAgAGm4R49emRX5IFehkJGnjBhgrd0D8gvvqu/fAIG3QPeJbBXDjnkEOaiS/5PVfMJGKjpoI4dOzY988zcj7RBx1C2bNm77747vt9AO1u1anVtPC0ALVFop+NhSXdoV6lSpZA5H2LgzLPOIoCuQuTktHvyySc9TQSckJDwb0DhBAwvvfSSuo/5XnnlFR9RrIlWYTVXrbbaahZ7tMceezz88MOmluLFi990002FErABCMFgO6W8cuXKuM24bPrELvjAK0arzIEFQZIXX3xx/vz5vqKE7N2ff7Z/lSpVdACuTaWDBg0yzr7wwgvxizxLA/GMGjXKyIUM7HPcccdhU3dgp512Qip4HaPgA8yxww473HzzzUZAoyddzJEmbPpWrVp1//3310kEAZt9H3nkkfLly+NgmiLCYGWimqSdaIaO0wvAixSfNWuWlU7BQzoSDPfYY49lV+SB6XC/DkOr4S1fqTB58mSP/isB56BRQJ+aJ0Z75plnsneXImDC6HXYk9/jTgB3armMtq5DO378r9pxR/xwmnHMxI8//ngsyIeQWHXVVc87/3zzcU47A7FHiYATEhL+DVgmARcAAsZJH3/88Y033rj66qsrjg8++OCmm26KnwxY66yzzjnnnlsoAcPGG2/cv39/BHlps2ZeGThwYOz5O2CCJInZdDk/jV4+2rdvT4Y777zTkHfQQQfts88+BnGTK0J1E6VpOHQGBrjNN9/8wosu0mHQ1yP8xDhBwKhRI2Imxlgmb9dBwL8DCBL90OvDDz9kGRgyZIjJ2CNtCpubyJfuLZYmYFxOwthBb5QbdhkKHdasWbN06dKYOG5CAQIuFDNnztSX4EjsmL21kqAI7Zhoae30LsWKFaPd0t+rTwSckJDwb8BKEHD8ElYU7rPOPtt0aDZCt88++2yPHj3U2UIJuHnzq0qWLBlzVefOndXcQuehFcG333579dXXIMvcN0h/B8aMGWMc3H333U1g2223HdmM9cZivYVZc+utt47xDrPiZvRA2jXWWOOpp55yM4gB1xolGeGAAw4wfH/99ddHHnnk7ybgHG699VadyiabbEIGs6Y7+O/ggw8u9HffliZgJN24cWOvQ926dZnoo48+Mr/S7tBDD738iivMuPm/OfVfCXjChAmnnXZa/fr1Y+b+g8hpV6ZMmdBOnBQvXlwDt/Sv1icCTkhI+DdgpQnYFBUEbILBXg888MDChQv79OljRhwwYECOgN0JAr7lllusN0e62bFjR9NngW9ygm0nTZq0/DEL+952223Yd+LEiWgP5b/++uvZZ7/AaDVlypRFixZlPxcG0p59zjn6ABNhs8suq1GjRokSJVq2vNoEiY2M8vEDS0PkXnvtheQKJWADPU3Lli07bNiwIOBGjRpltv8NPMJey/m3W2BUxf0sMHbs2G7duhnEH3vsMbOvRzEBn3jiiUvPiEsTsDUo1uvw9NNP0+Wwww6rV6/e7bffbl5feoflE/D777+PfYEdWJW+8Qt0OTDXtGnTWHsFtdP3hHbsGdoJGF4oVLtEwAkJCf8GrBABY8eaNWt6+sILLyiLCEl97N279y677GKgMT56qrziZgRmwbhx49q3b7/WWmtd2qwZuq1cubIhLP4RbZMmTZBHdt9fYKtq1arh16VrcQD7InKcV7VqVaSy//77ly9fvlevXtnHGaAEQ+0ee+yBLbK3lgHkrXUwBOMPDISJBw0a5P6rr7660047GR+JiqQrVarkiFatrl199dUtmz17NsonQK1atYYPH26mJA/qtQAT77zzzkufi+SsL/TnuzkYB7Fs/k9ncxg1apQZvXXrNtnPeVj+z4ARvzbi+eefX9YvpsFyCBj71qlTh4loyrm1a9du0KBBgX/RZD5G8Ly2/O9nhHb8m/2ch8suv3y11VZr0+b67Oc8JAJOSEj4N2CFCPi5555r2rTpGWeccWXz5udfcIHB6MyzzhoyZIgS7/r4449/8MEHjTU4snHjxueed56Pbdu2dX3e+ecjY/TmdUW8RYuWuDy7aR6QdPXq1Y855pilv9caQCR4LjOSLYGd77jjjgLsgoDvu+++ChUqXHvtddlby8Cnn36KeDp16uQVpHvTTTfNz/zZKfRviNciGPfPOfdcWr/33nuI1nEXXXyxa8zNCE3PPNN8j5AM9PXr1z/99NPN5VQbPXp07J/Do48+WrFiRVye/VwYCOD1l19+Ofs5D127ds39AlQBLJ+AVwTLIWCTNJWzts7giSeeyD77BVOnTrWGACuiXfQ3+UCxepcqVaoU+o/HEgEnJCT8G/AbAjY+jhkzRvlbWNjfOSoUixYtyv2+z3KwePHi5SzD+medffb119+AEbO3Vh7exVUmNuyYvbUMWEmY0BHpFlB2+aIWgJVhgUIlZ8xGjRrh0eznZcAOBV730RiqZbnxxhuX9sW333770UcfaRH+OAFrL7h7xfXNQQfQvn17HVu3bt2yt5aBQrV7+OGHDznkkBdeeKFQ7aZNm3bwwQcnAk5ISPhn41cCvvXWW8uUKWPyOPHEE0eNGpW9+z/Biy++ePfddy/n+6UrAlT6yCOPPPPMM8v/qeT/Ek8++aQh+Hf8CnG/fv0aNmzYunWbAt/4DZjdjzrqqF122cV8bMTM3l1JGN9LlixZqVIlLUv8m66Vgv7g5ptvNrjHNw9WCrRr0qSJsbjQriW022abba648srsrYSEhIR/In4l4KlTpz6fwcCBA2fOnJm9+z9BoYV4ZWGTP2WfPxG/W563335bD1Ton3uECRMmDMhgyJAh5tfs3ZWEKTPcbQwt8AtWK4I/Ym3axb/3LRQ57SZOnJi9lZCQkPBPxK8EnJCQkJCQkPA/QyLghISEhISEIkAi4ISEhISEhCJAIuCEhISEhIQiQCLghISEhISEIkAi4ISEhISEhCJAIuCEhISEhIQiQCLghISEhISEIkAi4ISEhISEhCJAIuCEhISEhIQiQCLghISEhISEIkAi4ISEhISEhCJAIuCEhISEhIQiQCLghISEhISEIkAi4ISEhISEhCJAIuCEhISEhIQiwK8EPGHChJ4ZPPXUUx999NFrr702adKk8ePHv/XWW/G/Xl+8ePG4cePcjPXw9ddfDxo0qF+/fp988kncWbRo0ZgxY3r37u2+p3Ez4OPAgQM//fRTu02dOnXw4MEzZsx45ZVXpk+fnl3xW0ybNm3YsGHW2GrWrFlxc+bMmaNGjVqwYEF8hPnz57/99tuvZmDz7N2ff164cOHYsWNJYp/Zs2dTJ9aA0+lin/cycPHjjz9mX8vD999/P3z48A8//ND+FM/ezcMXX3wxYMCAF1980f4+/vDDDyNGjPjggw9YwNGxpgC++eabIUOGMBd5Ro4cSfjsg78tRMgjjzzCFNnPfxgff/zx0KFDw++MyX0Rlj5+99132UUrCWHz3HPP2cRX8SauRLjAfuedd7Ir8vDZZ5/179//pZde+vLLL+OOgOFZ0UUGT30NkcRGLEhISEj4HfiVgK+//oZSpUodccQRJ5100pNPPlmjRo3zL7igcePGderUQTBqzVVXtdh1111vu+22WO/mZZdfvtlmm5UoUcJbo0ePRmNq8W677bb++utvuummbdpcn2NKjzp27Gj/Xr16qWvNLrts8803t+HWW2+d27AAbrjhhu23375Fi5ZW9ujRA7U//fTThHFWPtFqF3bYYYeyZcvutNNOWgF3UC/KvOLKK48++ugLL7qIYPfcc0+5DLbZZhsrr732uilTptSuXfuss8/234EHHpi/YQ541J6XNmt23HHHNWrUKJ/1qfPmm2+eeOKJG2ywwUYbbXTKKaegCiTNPpdcemn9+vUbNmyIa7Or86Csb7HFFldffQ3zbrfddvqP7IP/CdCkhiP74U/C3Xffzar4Kfv5D0M88FT4/fIrrkCZ7LnjjjvWrFmzUDcBU3N69kNh0PQI1D333PPMs84SouXLl7dz3bp1Tz31VG1TdlEG+kvHCWCx2qRJEz7VLwrUSpUqtWx5NZG83qrVtfvtt1/x4sVdZ19LSEhIWHn8SsAIb++990Ykrs0HQcA45tBDD0WZEydORC345tZbb431JgBc+PDDD6M69y++5BL1EV2pSs8884y3KlasaKqOxebOnXfeebXVVsOXyqXFaDto+JZbbok1BXDjjTci4CubN1fpHn30UQSMX/fdd9/9998/V4i/+uor1Ij/CI/gEYxy+cQTTyDCWrVqmTIxpenHAkxMcueWLl36oYceouDBBx98xhlnnH766YrpsghY3W/e/CqVGgfnl3gj0THHHOMmwfQoJLzjjjuMU7vssgtreHTssccWOq6ZmDfccMNrrmnF1JgYH2cf/P+DZe68807Ek/38J8HAaiKcN29e9vMfBgLWJJFznXXWuejii+fOnesmPs73ewHcf//9YpVtlyXG4MGDRVq3bt1cjxo1atttt7Xh4YcffsIJJyxevDjWBEQdAn7sscfEDLdyrllcDFSpUsUra665pt7UMo7beOONeT/eSkhISPgdKJyAv//+++OPP75Dhw5Kj0oU36EdNmzYlltumSNgNchg4UKFUhxPPvlk5S++n6zWI070/Pnnn/voq6l69913X2ONNRCwp3fddZePffr0MdYsq4opl1jcAITVXnzxxbjZ9Mwz8wuxamiyOfLII5FuFF8sWLlyZTPZAw88gGXRNlZWf2PQMUkbg9599133iURlUHALjEGBOXPmqNE6DFPyeeefn72bgXZEpY7vS48cOdIcbyrSDZAEu5973nlnn3NOrCwAHQkBjPIOPeyww95//328/vLLL19//Q3t27eP8fSzzz6zCZK+6aabNC4WOMigSUej/O233z527FiKO/Hee+9lfC6zvmvXrqyqm6HdwIEDPQLXjOyCBeJbBboNp+uo0BXdbWIBTblSD2ElMdgtpIXx48ffnAE3sbCVLq699jrHMSx2tDNenzJlCre+/vrrbdu2ZRkXnhLDno8//jiZ7UwvGyJsrdJ117XWpcX3eB3nKX0J5ghqap5IpYEjTMTe8gmY0ynCWfrFLl265H4gkkM+AROsdu3atNB+achiQQ5koLKLeIWP+BrBa6p69+6tiRw+fLiniYATEhL+OAonYFATFWX8p7jHHUxTpkyZHAHngEWQSnwn2Txh7kQDWBMH4zlQlLG4WhwEbNno0aOxxezZs5Xmt956K7NNQbzxxhsqO/LOpwRcmCvEKr4KaNZEt6VKlSIYHnX06quvboQy4CIbH3M/ilbKFVw7EMnHTp064XW47777YkEBxMiIS1CCcT97dymoxRUqVOjVq1espz6ah+zj32L+/PkUZzFUqkVYsGCBleREMPoGrDx58mT8fdRRR9HahM2MjzzyyDnnnrv22mvvtttuderUwQqVKlXS3GApzUfr1m3Q4QYbbLDppptWrVrVeO1dLjOxFStWDOVgSgNf06ZN2d/M7RRHo0DNDRbEWJoqnjrggAOsL1++vMW4OaRlfAtMgYzmxA8//LBly6tdGDe95eh+/foRHhXpIUaMGIGuTK62qlatmqfVq1e3Jx4l6iabbMI42gV9D71OO+00wttNi9CkSZNGjRq5U7p06QcffPDtt9+2ctasWSwgBkKS5RMwMP7UqVPZFlOSsF27dnqC7LPfErAwsP+bb77JsLwWC5ZG//79WUN8fvvtt1SzsyAkEv72NBFwQkLCH8cyCRiZISrjV246LJSAMa7xyPARv5BidFbcEQkKxIuvvPLKCy+8cNBBB+E5hIeADZTWKIK2VTR9LfA9wBzcz63xNW7mE3AAhw0dOhSdOA5ZquNoxjjlREM5Yn722WdjJQkN3Cak+GjbTHuwyEXcWRohHiMASrB/YObMmbFAdb7gwgtPP/30+E5p/vpYsDSsCfXBCIhTL7zoIndwDyJkJVzVvXt3K8eMGWPkwlg+olhKOaVu3bqIjZuMy9TBjugBa55wwgnIDHmvs8465mMu0IiYPo2DOJLdpk2b5kXcaRMshYmDVtdcc03tEcYqUaKEXsTMbZQPUfVJQqJBgwb6Dw2WmXWrrbbCOjonjMjR1Bc2uB8BX3LppeXKlcP0++yzT3xPXmdgcwsmTZrk6KZnnonzuEljZ6z00YhvE0zGCPRad9118T3TsUz4nVlCkgIELITMqeELJJ0T+LvvvtPQMNrWW28drV4gn4DBzjk3AWFiK41RnGgQ1/SwT/x6XYRiLmjdSQSckJDwx7FMAl4aSxOwYtS3b19zz6BBg7K3MkCKhjAVStXGiKYla1T81VZbzWSWG7B+B5Ym4ABuMPypuSr4HnvsYb5xEw9ho9zPmJVmCv7u30Ky23a/IAhSXb7//vuN4Jgv1qwssIgZ96qrWrhW35X766+/Ya211urdu7c7yj2mNMrjUawckzo6dNMj0ySr4s5x48btsMMO6NlTgiG/zp07WxYEzFYslk/A6HD33Xf34tMZmO+5z1iMRwcOHGiTHMzr3I26sCY2vfvuu23uFY/wFmlZwGholkVIxx9/PKbnAguM3W+99ZbOjP1dW3nIIYfoFdq0uV6vEHOtzclmf2TJR97iIG1TjnTzUYCA6YKwwxcVKlTQ5GmJKOIIrVjz5lfpyfJ/aa4AAefDlM8UsdUZZ5yBwvVkrGFMR8zZRUshEXBCQsIfx0oQsEkramV8xL7qWr169ZCfcqyI5/8LJayw2267mW8MPQjGf0cfffSqq65qfbBjPryutuZXzGXhzLPOUuVzP+TzCipy0b9/fwRviFF8Dd/Iknj9+vUzOD7wwAMWKOsXX3LJ2eeco7xmXi0IJJH7x06FAnOjW7v5inHJrOJjHSOjqk39+IF3Ptyn17JOhI8++ggpIqfPPvvMGMcFJCxWrNi9997rqTkP16LSPn36YMflEzCK8pRI5kgsaNkaa6yBIXBVjRo1DKZBwOedf745j6MNnTTCoCR3HCxNwBioS5cudsNqG220EeNrDlq2vJrupnPcaQLGygjYi6eeemqlSpUMzdGXiAqhQph8Au7QoQNK9pQ7eIfwF1x44XrrrYfFWem111678847V4SADfGk4ouAt8QVyjR2k3npHZZDwPoA5o19RBGXiVjW0yXQzmRPquzSPCQCTkhI+ONYCQI2VWyxxRY33XRTfPz444/VZSx73XWtjV8HHHCACUaNGzt2LPLDBB5hxFgMprHcz4ALwDK12DCd/bxsmFH23XdfR7tGA+Zs5RIfG+zsoGLav2TJkgY+I9HDDz9sdIvfmkFvRxxxBLbIbFMQym7btm2vvvqaOXPmZG8tF/hPsa5YsSJWMLNeceWVqv/UqVOzj38BjUhVaAUP2MeC9ddf/6KLL9Y6GKbZjZFPO+20b775ZvLkyaZ5fnn++edLlSoVwtevX18ro/PARux/0kknBQFjVmZv164dFtQf2Ja1W7W6Fq/gHrrrn5gOeeM/UzVqjJ+V+nrjjTea+RxhlAzBAq+88or1ONV4WqJECfbZcccdt99+e9R7wgknXNqsmRNxHioyudpktdVWI5s999lnH/wqVNAtL+hsateujaFRnZZImHmLDA0bNsRh+HuXXXaxmPrxzYClUYCAC8BuIlCHkf28FJZDwAWAd3feeedatWpxa7PLLuPi+OWGAkgEnJCQ8MexogTsPvJTT9XWBx98UElVMRXl1Vdf3cSm1quwwUkWnHjiiQYsZREjZt/PEHDx4sUL/bWXzp07e4R1zHzZW4UBue666674qU2b681/Zhf0g2KPOuooI0v8SrYx1LRXoUIFDEQGzUH8djT6qVatWoEJLwe7aSA22WSTAgy0LKi/eC4U9xVOP/30mMXzgTY8wqzZz4WBQcqXL4+Dt9tuu44dO3755ZfW47lGjRohdXxGL7P72muvjbGos9NOO1mPqDAu3bHF7bffjoDxommSFtiRGc2aCNXK/fbbD8PR3UiKAvEQ4kRFXiGb6dMrPnKfI2iR/yvQCLhq1arMiPUPP/zwd955By0ZhTfccMM999wTqxkQcZUX7WmSdpYR2blcwN125tYjjzyS/OXKleM7N5s0aSJsNEnGdy2d4fiSSy+lPkkM6CNHjsye/Vssn4B1YAX+6ksBrCAB24TkfBpu9XXbbbfVW2Qf5yERcEJCwh/HihKwgdL4YhKCYcOGmc9GjRoVHwNvvvkmRkRgXbp0UZiMfQUIydiKAwqtoQ7Fvmh7+QTsiDhLrTfRGr8MfyZgd2ImDuBg45fBa8CAAbm/hvH+++/37NlzWWWaqMb3ypUrr8gUDlOmTAlJcsj9i+d8jB071nxpkMp+LgzxrVdGQ2bxTXiqMbU5lWoso4HwKE559tln46J3795xASTHpvXq1evUqZMeKBoOxOaaEZCc3Qx2dJw4cSK+Z6vFixe742nXrl3fe+89d2IrdvNiRq4l+Oyzz8KSxGNAd+bOnctE7lDtxx9/NGrHiyTkfWuQHDt7cfz48fEoH6zkkQVUy/2WshOpY08Ez6dxswCWT8D/FStIwPpFK7OyZjB8+PCwZwEkAk5ISPjj+A0Bm6Lat2//xBNP5PPZ/wAI1WC0guT3/wHtxbXXXme+XMFvQa8gnnzySRNV/M7R/xNQqRG5TJkyxt/87zf8Y6AFwXN169b9gwS82WabnX3OOTg1/h3R78Z3331nJm7e/CojeyLghISEP4JfCdgU0qhRI2OoYXTp35P6f4XByCy1rOnnfwC8++qrr+bG5T8Lo0ePXs4PJv8UzJo1q23btocccgjfDRs2LHv3HwQzqJhs2LBh69Zt4g93/A6Y8s8591z7nHveecv53eYVwdy5c0lCnn+qwRMSEv5n+JWAE/6OWLRo0ezZsz/PYP7f/3/tkJCQkPDvQSLghISEhISEIkAi4ISEhISEhCJAIuCEhISEhIQiQCLghISEhISEIkAi4ISEhISEhCJAIuCEhISEhIQiQCLghISEhISEIkAi4ISEhISEhCJAIuCEhISEhIQiQCLghISEhISEIkAi4ISEhISEhCJAIuCEhISEhIQiQCLghISEhISEIkAi4ISEhISEhCJAIuCEhISEhIQiwK8E/P777/fOoG/fvp9++unbb789bdq0SZMmvfPOOzNnznzvF0yePPnzzz//4Ycfsq+tPGbNmuWUF154YelNFi1a9NZbb02fPv2LL7547bXXvvrqq+yDPHz33Xevv/462YjhIl+2iRMnfvTRR//j/y3uJ5980qNHD1bKfv7554ULF7755puEoSktvv766+yDPBCS8N6aMWPGqFGj8rWwoRezH957jymy7/xhfPvttw614ZgxYz744IPZs2cPGjQoPM6Y2UUricWLF9PRJs8+++yrr77ap08f14MHD543b152RUJCQkJCYfiVgG+++eZ11lln7bXX3mijjTp37ly3bt1rr73u0mbNTj311LvvvvugX3DEEUecfvrpnTp1+uabb7JvriRefPHFLbfccp999kGW2Vu/4MMPP6xdu/aNN954//33V6pU6fnnn88+yAO6qlatWosWLTt06ODC10MPPTRk8+7xxx9/ZfPmTz/9NHbJvvD/CWR51tlnlyxZ8oEHHsjeyrQy+++//0knnXTPPfdUrlwZyWUf5GHEiBEenXzyybfffvtee+115513Ej60aNPm+scee+zggw+Ojx07dsy+84eBKatWrcqbxx577DXXtBo+fDgD8jj5+/Xrl120ktAPsblNoE6dOhtssIGLvffeW+uWXZGQkJCQUBh+JeAbbrihfPnyt91226OPPvrSSy/hv8aNGx933HEHHnjgyy+/jHTXWGMNrHze+efvsssuW2yxBWL48ccfsy+vDMaPH3/mWWdddVWLOXPmZG/9AoPjtttu27Rp02aXXbbmmmt27do1+yAPzz33nEahYcOG5553nlpPDI3CeuutV7FiRaRyzrnn7rzzzuXKlbvgwguxY/ad/zd89tlnDlprrbW0LNlbP/+M2EqXLo3bSFisWDFsmn2QBy0Ce7Lt2eecs/7662tomje/yj777bcfbn7hhReos/nmm19x5ZWjR4/OvvOHYTZlMR7E/foqU6+x9fwLLmBqj7KLfgtz/IABA5bTbJmqjzrqqAMOOKBbt25aq0ceeeTEE0+sUqWKF7MrEhISEhIKw28I2ODywQcfuDY+GivxWdMzzzzmmGNMOV26dEEPDz/88KJFi5544okyZcpYYJlH8+bN+/7773/44QcXPgYrz58/f/r06fgpvo08d+5cdOhjlHJffbRVXBt8LXD98ccf16xZs127drfccotZCku5WQAjR44sW7bs5VdcYZLbeuutsd3rr79OHi2Cp4sXL8ZexuvixYsbJUMYMtALVbh2B/G449wZM2aEDAsXLnSTzJ9++qmvP/30E3kIs2DBAk/BzWnTpuW+Je4jmWfNmvXFF1/gMAyKgBmBBWDChAl77rmnCdhcSwsdQ7yVj8GDB+sS6tWrZ42+54033nBn44031kCwDF0QcOwZ68lJWuKFwASLswJh9hDyyy+/jFdoQbyvv/6aanGTrRiK3fjukksvjWVPPfUUWy2LgL1y+OGH04XrC21oWFVbpqPKfv75Zz2cOTsRcEJCQsLyUTgBq+bG34ceeuimm24yxrmj/gYBq/WIYauttjr22GNRAv5wcf/995uSTz755CubN1f0hw0bZi40yKrd6juCVKCRykEHHdSjRw+v1K9f3+RnpbeaNGlywgknGLXVekSo1iN4I/hhhx2GljKi/QboRE9gZDSZHXHEEWSwDJkFAQPhcR5Wq1GjBkLq1avXaaedVqdOHfL07duXhMSw2EHmNjq+9tpraI8WZ5xxxv777++a1tZrBa67rjUCI5hHhLRm4MCBGNf8Xb16dZNf7dq1L7v88g033JBNTLruUNwIazH61yvQYty4cSFYPj766CPsazFRvaWVeeWVVzbddFPXZlPW8G7uZ+SYniTMe/TRR+tOtA5t27YlTNiNEa66qoW2g4LuMA7L0JQitWrVoiZ93Y+fN3s6aNAgNkfDsfnyCRiLT5069Z577iHtkUceyTL20eVkHycCTkhISPi9KJyAAetMmTJl/Pjx6NNH1KtMI4BTTjll22233X333TGHQoxsdt55Z0RixkKrKO3VV1/FCnvttdeQIUNUf9xs2DJyYWVf77vvviuuvHLttddGdSYqNK+s9+/ff8cdd2x22WUOsixmTRcxLhdAHIrAMPHQoUN9LEDAMHPmTLS0xRZb3HXXXZUrV0b28f1q8jdo0GCNNdYg3q233kpa5NSnTx9savrEzZatueaa2BfBk80OtPA6osVwlSpVwmo9e/ak8iqrrGKZRy1bXo2AW7RoaWfc+eabb5pECc90yNuFj1mx8qDVIPyoUaMMtagXzwUB63JI8uSTT2bXZYBNS5Ysee+99158ySWMj5vJee2112kFELbTsen5F1xAnRdffHGPPfZgCoRKtdVXXx1xkq1UqVJ4MUyH7Dn3/fffj82XT8A5aAI0Tzy46667Oi4GcUgEnJCQkPD7sEwCLoAgYKyGABBY69Zt4ru71iMzBOxaFcYBb731VtMzz8Qi2E7pxxatWl3rI3Jy8e677yIJTBME/PTTT6Pns84+e/PNN/dW5qiVxtIEbOdDDjnETSKVLl3a7GhzVHTzzTc/8MAD66+//u23347zUH6VKlUmTZp03vnnh+54CE936dLFJo888giVDdBajUubNcNwW265pa3mzp3LDh4R3ib9+vXbYIMNUDVyKvSbtCuIIOCtt956k002OfDAA22bY26C6Vqwr5neUwbE7hgRTxNJE0AkTQx1Lrr44q222sqAjhe9UqxYMWsmTJiANbUXsVsBLE3AeN347j9e1n+4g7kNvqxHR271ijuxOBFwQkJCwu/DShCw4ezBBx/s0KEDNlXQYzIuQMBoFZ8988wzaHWHHXbAFibgGCLRYZkyZZDWwIEDkaKVJl0T6n777Xfdda3NqU2bNs0ctdIoQMA//PADBsVMJlQ7b7PNNgRwc8aMGabzzp07GxlpYSWKcq5ZkPyG4A8//BD3rLvuuvHLX48++qhpGIFRoWbNmtjIcImAzeWm9nXWWcdiy4KAaVq+fHnUuESC34Ug4CZNmpDNBR5t167dvMw/5hk7dizKd/QZZ5zh0UsvvfT9998PGDCAPAcffDCqmzNnDr323XdfrMmJCHjBggXNm1+FgBmcgtSkbBxUAEsTME1ZA2xFGP5C7QTgX+1I7mfMgUTACQkJCb8PK0rADz30EAL2Va2/8847Uamyi7HMfBj0lFNOmTx5svFozz337N69O+a75557XnvtNR+RgdnLTYSxyy67XHjRRVhqs802Q2mGY1Xeu8OGDatYseJhhx3mTva8X2DUc+iypAo4yOCIusyjX3/9tRkX9zvi8ccfRz/m3ZNOOsmhyPiqq1p06tQJX7Zv396Ll19xxW677fbee++ZgLURTsFDmFW34akJGIF17NixVq1a9evX13DsvvvuCO/555/HRqwRpNW3b19HxAxNqUJ/4otB9QQajuznwjBo0KBSpUrpVL777jsWLlu27EYbbYQLZ8+ebV533aNHD5YsWbJkq1bX3nrrrdtn4K3p06e3bdv2gAMOMJu+9dZbxCDwyy+/bDH58SsurFSp0mWXX5496bdYmoDN1jwbwLi6jWuuaaV3WfrfbUMi4ISEhITfhxUiYMOZKmwc9NU0afwynGGd2rVrP/bYYzjDuHbIIYf4au5Ui5HZzjvvbALDzZgYNbpjAttnn33uu+8+TLD22mtbfMstt5x44okuDj/8cCMsEl36X+wo/eihRYuW2c9LQaE3Fxpbt9tuu0aNGiEDrF+vXr1u3bphspkzZ3qKU03t7uPyY4891oakpW+NGjVwHoGrVau2+eabE+y0006j5jHHHINFGjRogMD0B8Sjl/5g2223Nbv7aNj1yEg6dOjQs84+O35sbOfVV1/9wAMP7NOnT1a4X4ALEbYOIPt5Kbz77runnnoqwYyqZu5Ro0ZpTezGyLYllcEXqxl56UJa5lp11VWJwbZHHXXUcccdFz+x1gOxgwvy2IGQGiDzvQGdCwr9pbalCTgfM2bMmDp1qs4m+3kpJAJOSEhI+H1YIQIeM2YMajRQ+vr222+7g9ieeeYZH4cPH272vf/++1VwdwxMKi8GevDBB++44w43v/nmGwNu586dfTSGerFfv362Auw1YcIE46YFgwcPNiKr5nFiDkY646a5Oft5KXz00UchW8DI65X4zm0AhTz66KOI3/2PP/74iSeesMwdiBdNunHhkUndhY9xAVQw/HXt2lXnoRGhmgk41htJWYbKrt1xdFyYyLNn/wLTc/y+dPbzUjBrkidedwovxEciuTNw4MAwmn18ZauePXu6n1FiiRZemTRpEiENxIz57LPPMrX7Fsea2LlQUlw+Af9XJAJOSEhI+H1Y0W9BFxXGjh1r4kQe2c9/T+B+symqy37+KyERcEJCQkKR4FcCvv76G0qVKnXkkUeefPLJhX6vskjw5JNPdujQwdyc/fz3hEH2rrvuWvovfxUtJkyY0Oyyy2rUqLHmsv8S1n8FAj7qqKO23XbbBg0a6OEaNWpUOYNEwAkJCQnLx68E/O6773bPAOf9kX9O8+fihx9+WM4PIP8u+Gtq8cUXX/Tv319z0LNnz9/t8UWLFg0dOjQiZ/DgwT169LDhgAEDCv1fUCQkJCQk5PArASckJCQkJCT8z5AIOCEhISEhoQiQCDghISEhIaEIkAg4ISEhISGhCJAIOCEhISEhoQiQCDghISEhIaEIkAg4ISEhISGhCJAIOCEhISEh4X+On3/+P2AoCgZhkimEAAAAAElFTkSuQmCC;" parent="1" vertex="1">
                    <mxGeometry x="80" y="10" width="640" height="187" as="geometry"/>
                </mxCell>
                <mxCell id="ozQVp1FqlLE9wQ_dV6gl-6" value="" style="edgeStyle=orthogonalEdgeStyle;rounded=0;orthogonalLoop=1;jettySize=auto;html=1;" parent="1" source="ozQVp1FqlLE9wQ_dV6gl-1" target="ozQVp1FqlLE9wQ_dV6gl-5" edge="1">
                    <mxGeometry relative="1" as="geometry"/>
                </mxCell>
                <mxCell id="ozQVp1FqlLE9wQ_dV6gl-1" value="sum=0" style="rounded=1;whiteSpace=wrap;html=1;" parent="1" vertex="1">
                    <mxGeometry x="115" y="420" width="120" height="60" as="geometry"/>
                </mxCell>
                <mxCell id="ozQVp1FqlLE9wQ_dV6gl-8" value="" style="edgeStyle=orthogonalEdgeStyle;rounded=0;orthogonalLoop=1;jettySize=auto;html=1;" parent="1" source="ozQVp1FqlLE9wQ_dV6gl-5" target="ozQVp1FqlLE9wQ_dV6gl-7" edge="1">
                    <mxGeometry relative="1" as="geometry"/>
                </mxCell>
                <mxCell id="ozQVp1FqlLE9wQ_dV6gl-18" value="" style="edgeStyle=orthogonalEdgeStyle;rounded=0;orthogonalLoop=1;jettySize=auto;html=1;" parent="1" source="ozQVp1FqlLE9wQ_dV6gl-5" target="ozQVp1FqlLE9wQ_dV6gl-17" edge="1">
                    <mxGeometry relative="1" as="geometry"/>
                </mxCell>
                <mxCell id="ozQVp1FqlLE9wQ_dV6gl-5" value="i &amp;lt; array.Length" style="rhombus;whiteSpace=wrap;html=1;rounded=1;" parent="1" vertex="1">
                    <mxGeometry x="120" y="505" width="110" height="80" as="geometry"/>
                </mxCell>
                <mxCell id="ozQVp1FqlLE9wQ_dV6gl-9" value="" style="edgeStyle=orthogonalEdgeStyle;rounded=0;orthogonalLoop=1;jettySize=auto;html=1;" parent="1" source="ozQVp1FqlLE9wQ_dV6gl-7" target="zmzLIvNXmuu8GyDBqJHV-5" edge="1">
                    <mxGeometry relative="1" as="geometry"/>
                </mxCell>
                <mxCell id="ozQVp1FqlLE9wQ_dV6gl-7" value="array[i].Length&amp;lt;=3" style="rhombus;whiteSpace=wrap;html=1;rounded=1;" parent="1" vertex="1">
                    <mxGeometry x="120" y="620" width="110" height="80" as="geometry"/>
                </mxCell>
                <mxCell id="ozQVp1FqlLE9wQ_dV6gl-10" value="" style="endArrow=classic;html=1;rounded=0;exitX=0;exitY=0.5;exitDx=0;exitDy=0;entryX=0;entryY=0.5;entryDx=0;entryDy=0;" parent="1" source="ozQVp1FqlLE9wQ_dV6gl-11" target="ozQVp1FqlLE9wQ_dV6gl-5" edge="1">
                    <mxGeometry width="50" height="50" relative="1" as="geometry">
                        <mxPoint x="220" y="670" as="sourcePoint"/>
                        <mxPoint x="40" y="660" as="targetPoint"/>
                        <Array as="points">
                            <mxPoint x="70" y="830"/>
                            <mxPoint x="70" y="545"/>
                        </Array>
                    </mxGeometry>
                </mxCell>
                <mxCell id="ozQVp1FqlLE9wQ_dV6gl-11" value="i = i + 1" style="whiteSpace=wrap;html=1;rounded=1;" parent="1" vertex="1">
                    <mxGeometry x="115" y="800" width="120" height="60" as="geometry"/>
                </mxCell>
                <mxCell id="ozQVp1FqlLE9wQ_dV6gl-12" value="" style="endArrow=classic;html=1;rounded=0;exitX=1;exitY=0.5;exitDx=0;exitDy=0;entryX=1;entryY=0.5;entryDx=0;entryDy=0;" parent="1" source="ozQVp1FqlLE9wQ_dV6gl-7" target="ozQVp1FqlLE9wQ_dV6gl-11" edge="1">
                    <mxGeometry width="50" height="50" relative="1" as="geometry">
                        <mxPoint x="220" y="770" as="sourcePoint"/>
                        <mxPoint x="270" y="720" as="targetPoint"/>
                        <Array as="points">
                            <mxPoint x="270" y="660"/>
                            <mxPoint x="270" y="830"/>
                        </Array>
                    </mxGeometry>
                </mxCell>
                <mxCell id="ozQVp1FqlLE9wQ_dV6gl-13" value="Yes" style="text;html=1;align=center;verticalAlign=middle;resizable=0;points=[];autosize=1;strokeColor=none;fillColor=none;" parent="1" vertex="1">
                    <mxGeometry x="170" y="585" width="40" height="30" as="geometry"/>
                </mxCell>
                <mxCell id="ozQVp1FqlLE9wQ_dV6gl-15" value="Yes" style="text;html=1;align=center;verticalAlign=middle;resizable=0;points=[];autosize=1;strokeColor=none;fillColor=none;" parent="1" vertex="1">
                    <mxGeometry x="170" y="695" width="40" height="30" as="geometry"/>
                </mxCell>
                <mxCell id="ozQVp1FqlLE9wQ_dV6gl-16" value="No" style="text;html=1;align=center;verticalAlign=middle;resizable=0;points=[];autosize=1;strokeColor=none;fillColor=none;" parent="1" vertex="1">
                    <mxGeometry x="220" y="625" width="40" height="30" as="geometry"/>
                </mxCell>
                <mxCell id="ozQVp1FqlLE9wQ_dV6gl-20" value="" style="edgeStyle=orthogonalEdgeStyle;rounded=0;orthogonalLoop=1;jettySize=auto;html=1;" parent="1" source="ozQVp1FqlLE9wQ_dV6gl-17" edge="1">
                    <mxGeometry relative="1" as="geometry">
                        <mxPoint x="525" y="545" as="targetPoint"/>
                    </mxGeometry>
                </mxCell>
                <mxCell id="ozQVp1FqlLE9wQ_dV6gl-17" value="count = sum,&lt;br&gt;array1[] = {count},&lt;br&gt;j = 0" style="whiteSpace=wrap;html=1;rounded=1;" parent="1" vertex="1">
                    <mxGeometry x="305" y="515" width="120" height="60" as="geometry"/>
                </mxCell>
                <mxCell id="ozQVp1FqlLE9wQ_dV6gl-23" value="" style="edgeStyle=orthogonalEdgeStyle;rounded=0;orthogonalLoop=1;jettySize=auto;html=1;" parent="1" source="ozQVp1FqlLE9wQ_dV6gl-21" target="ozQVp1FqlLE9wQ_dV6gl-22" edge="1">
                    <mxGeometry relative="1" as="geometry"/>
                </mxCell>
                <mxCell id="ozQVp1FqlLE9wQ_dV6gl-21" value="i &amp;lt; array.Length" style="rhombus;whiteSpace=wrap;html=1;rounded=1;" parent="1" vertex="1">
                    <mxGeometry x="520" y="505" width="110" height="80" as="geometry"/>
                </mxCell>
                <mxCell id="ozQVp1FqlLE9wQ_dV6gl-25" value="" style="edgeStyle=orthogonalEdgeStyle;rounded=0;orthogonalLoop=1;jettySize=auto;html=1;" parent="1" source="ozQVp1FqlLE9wQ_dV6gl-22" target="ozQVp1FqlLE9wQ_dV6gl-24" edge="1">
                    <mxGeometry relative="1" as="geometry"/>
                </mxCell>
                <mxCell id="ozQVp1FqlLE9wQ_dV6gl-22" value="array[i].Length&amp;lt;=3" style="rhombus;whiteSpace=wrap;html=1;rounded=1;" parent="1" vertex="1">
                    <mxGeometry x="520" y="615" width="110" height="80" as="geometry"/>
                </mxCell>
                <mxCell id="ozQVp1FqlLE9wQ_dV6gl-28" value="" style="edgeStyle=orthogonalEdgeStyle;rounded=0;orthogonalLoop=1;jettySize=auto;html=1;" parent="1" source="ozQVp1FqlLE9wQ_dV6gl-24" target="ozQVp1FqlLE9wQ_dV6gl-27" edge="1">
                    <mxGeometry relative="1" as="geometry"/>
                </mxCell>
                <mxCell id="ozQVp1FqlLE9wQ_dV6gl-24" value="array1[j] = array[i],&lt;br&gt;j = j + 1" style="whiteSpace=wrap;html=1;rounded=1;" parent="1" vertex="1">
                    <mxGeometry x="515" y="720" width="120" height="60" as="geometry"/>
                </mxCell>
                <mxCell id="ozQVp1FqlLE9wQ_dV6gl-27" value="i = i + 1" style="whiteSpace=wrap;html=1;rounded=1;" parent="1" vertex="1">
                    <mxGeometry x="515" y="800" width="120" height="60" as="geometry"/>
                </mxCell>
                <mxCell id="ozQVp1FqlLE9wQ_dV6gl-29" value="" style="endArrow=classic;html=1;rounded=0;exitX=0;exitY=0.5;exitDx=0;exitDy=0;" parent="1" source="ozQVp1FqlLE9wQ_dV6gl-27" edge="1">
                    <mxGeometry width="50" height="50" relative="1" as="geometry">
                        <mxPoint x="370" y="650" as="sourcePoint"/>
                        <mxPoint x="480" y="550" as="targetPoint"/>
                        <Array as="points">
                            <mxPoint x="480" y="830"/>
                        </Array>
                    </mxGeometry>
                </mxCell>
                <mxCell id="ozQVp1FqlLE9wQ_dV6gl-30" value="Yes" style="text;html=1;align=center;verticalAlign=middle;resizable=0;points=[];autosize=1;strokeColor=none;fillColor=none;" parent="1" vertex="1">
                    <mxGeometry x="570" y="585" width="40" height="30" as="geometry"/>
                </mxCell>
                <mxCell id="ozQVp1FqlLE9wQ_dV6gl-31" value="Yes" style="text;html=1;align=center;verticalAlign=middle;resizable=0;points=[];autosize=1;strokeColor=none;fillColor=none;" parent="1" vertex="1">
                    <mxGeometry x="570" y="690" width="40" height="30" as="geometry"/>
                </mxCell>
                <mxCell id="ozQVp1FqlLE9wQ_dV6gl-32" value="" style="endArrow=classic;html=1;rounded=0;exitX=1;exitY=0.5;exitDx=0;exitDy=0;entryX=1;entryY=0.5;entryDx=0;entryDy=0;" parent="1" source="ozQVp1FqlLE9wQ_dV6gl-22" target="ozQVp1FqlLE9wQ_dV6gl-27" edge="1">
                    <mxGeometry width="50" height="50" relative="1" as="geometry">
                        <mxPoint x="370" y="650" as="sourcePoint"/>
                        <mxPoint x="420" y="600" as="targetPoint"/>
                        <Array as="points">
                            <mxPoint x="670" y="655"/>
                            <mxPoint x="670" y="830"/>
                        </Array>
                    </mxGeometry>
                </mxCell>
                <mxCell id="ozQVp1FqlLE9wQ_dV6gl-33" value="No" style="text;html=1;align=center;verticalAlign=middle;resizable=0;points=[];autosize=1;strokeColor=none;fillColor=none;" parent="1" vertex="1">
                    <mxGeometry x="620" y="625" width="40" height="30" as="geometry"/>
                </mxCell>
                <mxCell id="ozQVp1FqlLE9wQ_dV6gl-34" value="" style="endArrow=classic;html=1;rounded=0;exitX=1;exitY=0.5;exitDx=0;exitDy=0;entryX=1.017;entryY=0.375;entryDx=0;entryDy=0;entryPerimeter=0;" parent="1" source="ozQVp1FqlLE9wQ_dV6gl-21" target="zmzLIvNXmuu8GyDBqJHV-42" edge="1">
                    <mxGeometry width="50" height="50" relative="1" as="geometry">
                        <mxPoint x="430" y="860" as="sourcePoint"/>
                        <mxPoint x="480" y="810" as="targetPoint"/>
                        <Array as="points">
                            <mxPoint x="740" y="545"/>
                            <mxPoint x="740" y="950"/>
                        </Array>
                    </mxGeometry>
                </mxCell>
                <mxCell id="ozQVp1FqlLE9wQ_dV6gl-35" value="No" style="text;html=1;align=center;verticalAlign=middle;resizable=0;points=[];autosize=1;strokeColor=none;fillColor=none;" parent="1" vertex="1">
                    <mxGeometry x="620" y="515" width="40" height="30" as="geometry"/>
                </mxCell>
                <mxCell id="2" value="No" style="text;html=1;align=center;verticalAlign=middle;resizable=0;points=[];autosize=1;strokeColor=none;fillColor=none;" vertex="1" parent="1">
                    <mxGeometry x="235" y="520" width="40" height="30" as="geometry"/>
                </mxCell>
            </root>
        </mxGraphModel>
    </diagram>
</mxfile>